<svg xmlns="http://www.w3.org/2000/svg" class="icon" id="svgSprites">
  <symbol id="whatsapp-icon" viewBox="0 0 512 512"><path fill="var(--icon-fill, #075E54)" fill-rule="evenodd" d="M414.73 97.1A222.14 222.14 0 00256.94 32C134 32 33.92 131.58 33.87 254a220.61 220.61 0 0029.78 111L32 480l118.25-30.87a223.63 223.63 0 00106.6 27h.09c122.93 0 223-99.59 223.06-222A220.18 220.18 0 00414.73 97.1zM256.94 438.66h-.08a185.75 185.75 0 01-94.36-25.72l-6.77-4-70.17 18.32 18.73-68.09-4.41-7A183.46 183.46 0 0171.53 254c0-101.73 83.21-184.5 185.48-184.5a185 185 0 01185.33 184.64c-.04 101.74-83.21 184.52-185.4 184.52zm101.69-138.19c-5.57-2.78-33-16.2-38.08-18.05s-8.83-2.78-12.54 2.78-14.4 18-17.65 21.75-6.5 4.16-12.07 1.38-23.54-8.63-44.83-27.53c-16.57-14.71-27.75-32.87-31-38.42s-.35-8.56 2.44-11.32c2.51-2.49 5.57-6.48 8.36-9.72s3.72-5.56 5.57-9.26.93-6.94-.46-9.71-12.54-30.08-17.18-41.19c-4.53-10.82-9.12-9.35-12.54-9.52-3.25-.16-7-.2-10.69-.2a20.53 20.53 0 00-14.86 6.94c-5.11 5.56-19.51 19-19.51 46.28s20 53.68 22.76 57.38 39.3 59.73 95.21 83.76a323.11 323.11 0 0031.78 11.68c13.35 4.22 25.5 3.63 35.1 2.2 10.71-1.59 33-13.42 37.63-26.38s4.64-24.06 3.25-26.37-5.11-3.71-10.69-6.48z"/></symbol>
  <symbol id="linkedin-icon" viewBox="0 0 448 512"><path fill="var(--icon-fill, #0077B5)" fill-rule="evenodd" d="M100.3 448H7.4V148.9h92.9zM53.8 108.1C24.1 108.1 0 83.5 0 53.8a53.8 53.8 0 0 1 107.6 0c0 29.7-24.1 54.3-53.8 54.3zM447.9 448h-92.7V302.4c0-34.7-.7-79.2-48.3-79.2-48.3 0-55.7 37.7-55.7 76.7V448h-92.8V148.9h89.1v40.8h1.3c12.4-23.5 42.7-48.3 87.9-48.3 94 0 111.3 61.9 111.3 142.3V448z"/></symbol>
  <symbol id="github-icon" viewBox="0 0 496 512"><path fill="var(--icon-fill, currentColor)" fill-rule="evenodd" d="M165.9 397.4c0 2-2.3 3.6-5.2 3.6-3.3 .3-5.6-1.3-5.6-3.6 0-2 2.3-3.6 5.2-3.6 3-.3 5.6 1.3 5.6 3.6zm-31.1-4.5c-.7 2 1.3 4.3 4.3 4.9 2.6 1 5.6 0 6.2-2s-1.3-4.3-4.3-5.2c-2.6-.7-5.5 .3-6.2 2.3zm44.2-1.7c-2.9 .7-4.9 2.6-4.6 4.9 .3 2 2.9 3.3 5.9 2.6 2.9-.7 4.9-2.6 4.6-4.6-.3-1.9-3-3.2-5.9-2.9zM244.8 8C106.1 8 0 113.3 0 252c0 110.9 69.8 205.8 169.5 239.2 12.8 2.3 17.3-5.6 17.3-12.1 0-6.2-.3-40.4-.3-61.4 0 0-70 15-84.7-29.8 0 0-11.4-29.1-27.8-36.6 0 0-22.9-15.7 1.6-15.4 0 0 24.9 2 38.6 25.8 21.9 38.6 58.6 27.5 72.9 20.9 2.3-16 8.8-27.1 16-33.7-55.9-6.2-112.3-14.3-112.3-110.5 0-27.5 7.6-41.3 23.6-58.9-2.6-6.5-11.1-33.3 2.6-67.9 20.9-6.5 69 27 69 27 20-5.6 41.5-8.5 62.8-8.5s42.8 2.9 62.8 8.5c0 0 48.1-33.6 69-27 13.7 34.7 5.2 61.4 2.6 67.9 16 17.7 25.8 31.5 25.8 58.9 0 96.5-58.9 104.2-114.8 110.5 9.2 7.9 17 22.9 17 46.4 0 33.7-.3 75.4-.3 83.6 0 6.5 4.6 14.4 17.3 12.1C428.2 457.8 496 362.9 496 252 496 113.3 383.5 8 244.8 8zM97.2 352.9c-1.3 1-1 3.3 .7 5.2 1.6 1.6 3.9 2.3 5.2 1 1.3-1 1-3.3-.7-5.2-1.6-1.6-3.9-2.3-5.2-1zm-10.8-8.1c-.7 1.3 .3 2.9 2.3 3.9 1.6 1 3.6 .7 4.3-.7 .7-1.3-.3-2.9-2.3-3.9-2-.6-3.6-.3-4.3 .7zm32.4 35.6c-1.6 1.3-1 4.3 1.3 6.2 2.3 2.3 5.2 2.6 6.5 1 1.3-1.3 .7-4.3-1.3-6.2-2.2-2.3-5.2-2.6-6.5-1zm-11.4-14.7c-1.6 1-1.6 3.6 0 5.9 1.6 2.3 4.3 3.3 5.6 2.3 1.6-1.3 1.6-3.9 0-6.2-1.4-2.3-4-3.3-5.6-2z"/></symbol>
  <symbol id="email-icon" viewBox="0 0 512 512"><path fill="var(--icon-fill, #4285F4)" fill-rule="evenodd" d="M48 64C21.5 64 0 85.5 0 112c0 15.1 7.1 29.3 19.2 38.4L236.8 313.6c11.4 8.5 27 8.5 38.4 0L492.8 150.4c12.1-9.1 19.2-23.3 19.2-38.4c0-26.5-21.5-48-48-48L48 64zM0 176L0 384c0 35.3 28.7 64 64 64l384 0c35.3 0 64-28.7 64-64l0-208L294.4 339.2c-22.8 17.1-54 17.1-76.8 0L0 176z"/></symbol>
  <symbol id="phone-icon" viewBox="0 0 512 512"><path fill="var(--icon-fill, #303030)" fill-rule="evenodd" d="M164.9 24.6c-7.7-18.6-28-28.5-47.4-23.2l-88 24C12.1 30.2 0 46 0 64C0 311.4 200.6 512 448 512c18 0 33.8-12.1 38.6-29.5l24-88c5.3-19.4-4.6-39.7-23.2-47.4l-96-40c-16.3-6.8-35.2-2.1-46.3 11.6L304.7 368C234.3 334.7 177.3 277.7 144 207.3L193.3 167c13.7-11.2 18.4-30 11.6-46.3l-40-96z"/></symbol>
  <symbol id="twitter-x-icon" viewBox="0 0 512 512"><path fill="var(--icon-fill, #121212)" fill-rule="evenodd" d="M389.2 48h70.6L305.6 224.2 487 464H345L233.7 318.6 106.5 464H35.8L200.7 275.5 26.8 48H172.4L272.9 180.9 389.2 48zM364.4 421.8h39.1L151.1 88h-42L364.4 421.8z"/></symbol>
  <symbol id="facebook-icon" viewBox="0 0 320 512"><path fill="var(--icon-fill, #1877f2)" fill-rule="evenodd" d="M80 299.3V512H196V299.3h86.5l18-97.8H196V166.9c0-51.7 20.3-71.5 72.7-71.5c16.3 0 29.4 .4 37 1.2V7.9C291.4 4 256.4 0 236.2 0C129.3 0 80 50.5 80 159.4v42.1H14v97.8H80z"/></symbol>
  <symbol id="home-icon" viewBox="0 0 576 512"><path fill="var(--icon-fill, currentColor)" fill-rule="evenodd" d="M575.8 255.5c0 18-15 32.1-32 32.1l-32 0 .7 160.2c0 2.7-.2 5.4-.5 8.1l0 16.2c0 22.1-17.9 40-40 40l-16 0c-1.1 0-2.2 0-3.3-.1c-1.4 .1-2.8 .1-4.2 .1L416 512l-24 0c-22.1 0-40-17.9-40-40l0-24 0-64c0-17.7-14.3-32-32-32l-64 0c-17.7 0-32 14.3-32 32l0 64 0 24c0 22.1-17.9 40-40 40l-24 0-31.9 0c-1.5 0-3-.1-4.5-.2c-1.2 .1-2.4 .2-3.6 .2l-16 0c-22.1 0-40-17.9-40-40l0-112c0-.9 0-1.9 .1-2.8l0-69.7-32 0c-18 0-32-14-32-32.1c0-9 3-17 10-24L266.4 8c7-7 15-8 22-8s15 2 21 7L564.8 231.5c8 7 12 15 11 24z"/></symbol>
  <symbol id="user-icon" viewBox="0 0 448 512"><path fill="var(--icon-fill, currentColor)" fill-rule="evenodd" d="M224 256A128 128 0 1 0 224 0a128 128 0 1 0 0 256zm-45.7 48C79.8 304 0 383.8 0 482.3C0 498.7 13.3 512 29.7 512l388.6 0c16.4 0 29.7-13.3 29.7-29.7C448 383.8 368.2 304 269.7 304l-91.4 0z"/></symbol>
  <symbol id="half-circle-icon" viewBox="0 0 512 512"><path fill="var(--icon-fill, currentColor)" fill-rule="evenodd" d="M448 256c0-106-86-192-192-192l0 384c106 0 192-86 192-192zM0 256a256 256 0 1 1 512 0A256 256 0 1 1 0 256z"/></symbol>
  <symbol id="table-icon" viewBox="0 0 512 512"><path fill="var(--icon-fill, currentColor)" fill-rule="evenodd" d="M64 256l0-96 160 0 0 96L64 256zm0 64l160 0 0 96L64 416l0-96zm224 96l0-96 160 0 0 96-160 0zM448 256l-160 0 0-96 160 0 0 96zM64 32C28.7 32 0 60.7 0 96L0 416c0 35.3 28.7 64 64 64l384 0c35.3 0 64-28.7 64-64l0-320c0-35.3-28.7-64-64-64L64 32z"/></symbol>
  <symbol id="r-project-icon" viewBox="0 0 581 512"><path fill="var(--icon-fill, currentColor)" fill-rule="evenodd" d="M581 226.6C581 119.1 450.9 32 290.5 32S0 119.1 0 226.6C0 322.4 103.3 402 239.4 418.1V480h99.1v-61.5c24.3-2.7 47.6-7.4 69.4-13.9L448 480h112l-67.4-113.7c54.5-35.4 88.4-84.9 88.4-139.7zm-466.8 14.5c0-73.5 98.9-133 220.8-133s211.9 40.7 211.9 133c0 50.1-26.5 85-70.3 106.4-2.4-1.6-4.7-2.9-6.4-3.7-10.2-5.2-27.8-10.5-27.8-10.5s86.6-6.4 86.6-92.7-90.6-87.9-90.6-87.9h-199V361c-74.1-21.5-125.2-67.1-125.2-119.9zm225.1 38.3v-55.6c57.8 0 87.8-6.8 87.8 27.3 0 36.5-38.2 28.3-87.8 28.3zm-.9 72.5H365c10.8 0 18.9 11.7 24 19.2-16.1 1.9-33 2.8-50.6 2.9v-22.1z"/></symbol>
  <symbol id="download-icon" viewBox="0 0 20 20"><path fill="var(--icon-fill, currentColor)" fill-rule="evenodd" d="M15 7h-3v-6h-4v6h-3l5 5 5-5zM19.338 13.532c-0.21-0.224-1.611-1.723-2.011-2.114-0.265-0.259-0.644-0.418-1.042-0.418h-1.757l3.064 2.994h-3.544c-0.102 0-0.194 0.052-0.24 0.133l-0.816 1.873h-5.984l-0.816-1.873c-0.046-0.081-0.139-0.133-0.24-0.133h-3.544l3.063-2.994h-1.756c-0.397 0-0.776 0.159-1.042 0.418-0.4 0.392-1.801 1.891-2.011 2.114-0.489 0.521-0.758 0.936-0.63 1.449l0.561 3.074c0.128 0.514 0.691 0.936 1.252 0.936h16.312c0.561 0 1.124-0.422 1.252-0.936l0.561-3.074c0.126-0.513-0.142-0.928-0.632-1.449z"/></symbol>
  <symbol id="user-graduate-icon" viewBox="0 0 448 512"><path fill="var(--icon-fill, currentColor)" fill-rule="evenodd" d="M219.3 .5c3.1-.6 6.3-.6 9.4 0l200 40C439.9 42.7 448 52.6 448 64s-8.1 21.3-19.3 23.5L352 102.9l0 57.1c0 70.7-57.3 128-128 128s-128-57.3-128-128l0-57.1L48 93.3l0 65.1 15.7 78.4c.9 4.7-.3 9.6-3.3 13.3s-7.6 5.9-12.4 5.9l-32 0c-4.8 0-9.3-2.1-12.4-5.9s-4.3-8.6-3.3-13.3L16 158.4l0-71.8C6.5 83.3 0 74.3 0 64C0 52.6 8.1 42.7 19.3 40.5l200-40zM111.9 327.7c10.5-3.4 21.8 .4 29.4 8.5l71 75.5c6.3 6.7 17 6.7 23.3 0l71-75.5c7.6-8.1 18.9-11.9 29.4-8.5C401 348.6 448 409.4 448 481.3c0 17-13.8 30.7-30.7 30.7L30.7 512C13.8 512 0 498.2 0 481.3c0-71.9 47-132.7 111.9-153.6z"/></symbol>
  <symbol id="award-icon" viewBox="0 0 384 512"><path fill="var(--icon-fill, currentColor)" fill-rule="evenodd" d="M173.8 5.5c11-7.3 25.4-7.3 36.4 0L228 17.2c6 3.9 13 5.8 20.1 5.4l21.3-1.3c13.2-.8 25.6 6.4 31.5 18.2l9.6 19.1c3.2 6.4 8.4 11.5 14.7 14.7L344.5 83c11.8 5.9 19 18.3 18.2 31.5l-1.3 21.3c-.4 7.1 1.5 14.2 5.4 20.1l11.8 17.8c7.3 11 7.3 25.4 0 36.4L366.8 228c-3.9 6-5.8 13-5.4 20.1l1.3 21.3c.8 13.2-6.4 25.6-18.2 31.5l-19.1 9.6c-6.4 3.2-11.5 8.4-14.7 14.7L301 344.5c-5.9 11.8-18.3 19-31.5 18.2l-21.3-1.3c-7.1-.4-14.2 1.5-20.1 5.4l-17.8 11.8c-11 7.3-25.4 7.3-36.4 0L156 366.8c-6-3.9-13-5.8-20.1-5.4l-21.3 1.3c-13.2 .8-25.6-6.4-31.5-18.2l-9.6-19.1c-3.2-6.4-8.4-11.5-14.7-14.7L39.5 301c-11.8-5.9-19-18.3-18.2-31.5l1.3-21.3c.4-7.1-1.5-14.2-5.4-20.1L5.5 210.2c-7.3-11-7.3-25.4 0-36.4L17.2 156c3.9-6 5.8-13 5.4-20.1l-1.3-21.3c-.8-13.2 6.4-25.6 18.2-31.5l19.1-9.6C65 70.2 70.2 65 73.4 58.6L83 39.5c5.9-11.8 18.3-19 31.5-18.2l21.3 1.3c7.1 .4 14.2-1.5 20.1-5.4L173.8 5.5zM272 192a80 80 0 1 0 -160 0 80 80 0 1 0 160 0zM1.3 441.8L44.4 339.3c.2 .1 .3 .2 .4 .4l9.6 19.1c11.7 23.2 36 37.3 62 35.8l21.3-1.3c.2 0 .5 0 .7 .2l17.8 11.8c5.1 3.3 10.5 5.9 16.1 7.7l-37.6 89.3c-2.3 5.5-7.4 9.2-13.3 9.7s-11.6-2.2-14.8-7.2L74.4 455.5l-56.1 8.3c-5.7 .8-11.4-1.5-15-6s-4.3-10.7-2.1-16zm248 60.4L211.7 413c5.6-1.8 11-4.3 16.1-7.7l17.8-11.8c.2-.1 .4-.2 .7-.2l21.3 1.3c26 1.5 50.3-12.6 62-35.8l9.6-19.1c.1-.2 .2-.3 .4-.4l43.2 102.5c2.2 5.3 1.4 11.4-2.1 16s-9.3 6.9-15 6l-56.1-8.3-32.2 49.2c-3.2 5-8.9 7.7-14.8 7.2s-11-4.3-13.3-9.7z"/></symbol>
  <symbol id="briefcase-icon" viewBox="0 0 512 512"><path fill="var(--icon-fill, currentColor)" fill-rule="evenodd" d="M184 48l144 0c4.4 0 8 3.6 8 8l0 40L176 96l0-40c0-4.4 3.6-8 8-8zm-56 8l0 40L64 96C28.7 96 0 124.7 0 160l0 96 192 0 128 0 192 0 0-96c0-35.3-28.7-64-64-64l-64 0 0-40c0-30.9-25.1-56-56-56L184 0c-30.9 0-56 25.1-56 56zM512 288l-192 0 0 32c0 17.7-14.3 32-32 32l-64 0c-17.7 0-32-14.3-32-32l0-32L0 288 0 416c0 35.3 28.7 64 64 64l384 0c35.3 0 64-28.7 64-64l0-128z"/></symbol>
  <symbol id="address-book-icon" viewBox="0 0 512 512"><path fill="var(--icon-fill, currentColor)" fill-rule="evenodd" d="M96 0C60.7 0 32 28.7 32 64l0 384c0 35.3 28.7 64 64 64l288 0c35.3 0 64-28.7 64-64l0-384c0-35.3-28.7-64-64-64L96 0zM208 288l64 0c44.2 0 80 35.8 80 80c0 8.8-7.2 16-16 16l-192 0c-8.8 0-16-7.2-16-16c0-44.2 35.8-80 80-80zm-32-96a64 64 0 1 1 128 0 64 64 0 1 1 -128 0zM512 80c0-8.8-7.2-16-16-16s-16 7.2-16 16l0 64c0 8.8 7.2 16 16 16s16-7.2 16-16l0-64zM496 192c-8.8 0-16 7.2-16 16l0 64c0 8.8 7.2 16 16 16s16-7.2 16-16l0-64c0-8.8-7.2-16-16-16zm16 144c0-8.8-7.2-16-16-16s-16 7.2-16 16l0 64c0 8.8 7.2 16 16 16s16-7.2 16-16l0-64z"/></symbol>
  <symbol id="handshake-icon" viewBox="0 0 640 512"><path fill="var(--icon-fill, currentColor)" fill-rule="evenodd" d="M272.2 64.6l-51.1 51.1c-15.3 4.2-29.5 11.9-41.5 22.5L153 161.9C142.8 171 129.5 176 115.8 176L96 176l0 128c20.4 .6 39.8 8.9 54.3 23.4l35.6 35.6 7 7c0 0 0 0 0 0L219.9 397c6.2 6.2 16.4 6.2 22.6 0c1.7-1.7 3-3.7 3.7-5.8c2.8-7.7 9.3-13.5 17.3-15.3s16.4 .6 22.2 6.5L296.5 393c11.6 11.6 30.4 11.6 41.9 0c5.4-5.4 8.3-12.3 8.6-19.4c.4-8.8 5.6-16.6 13.6-20.4s17.3-3 24.4 2.1c9.4 6.7 22.5 5.8 30.9-2.6c9.4-9.4 9.4-24.6 0-33.9L340.1 243l-35.8 33c-27.3 25.2-69.2 25.6-97 .9c-31.7-28.2-32.4-77.4-1.6-106.5l70.1-66.2C303.2 78.4 339.4 64 377.1 64c36.1 0 71 13.3 97.9 37.2L505.1 128l38.9 0 40 0 40 0c8.8 0 16 7.2 16 16l0 208c0 17.7-14.3 32-32 32l-32 0c-11.8 0-22.2-6.4-27.7-16l-84.9 0c-3.4 6.7-7.9 13.1-13.5 18.7c-17.1 17.1-40.8 23.8-63 20.1c-3.6 7.3-8.5 14.1-14.6 20.2c-27.3 27.3-70 30-100.4 8.1c-25.1 20.8-62.5 19.5-86-4.1L159 404l-7-7-35.6-35.6c-5.5-5.5-12.7-8.7-20.4-9.3C96 369.7 81.6 384 64 384l-32 0c-17.7 0-32-14.3-32-32L0 144c0-8.8 7.2-16 16-16l40 0 40 0 19.8 0c2 0 3.9-.7 5.3-2l26.5-23.6C175.5 77.7 211.4 64 248.7 64L259 64c4.4 0 8.9 .2 13.2 .6zM544 320l0-144-48 0c-5.9 0-11.6-2.2-15.9-6.1l-36.9-32.8c-18.2-16.2-41.7-25.1-66.1-25.1c-25.4 0-49.8 9.7-68.3 27.1l-70.1 66.2c-10.3 9.8-10.1 26.3 .5 35.7c9.3 8.3 23.4 8.1 32.5-.3l71.9-66.4c9.7-9 24.9-8.4 33.9 1.4s8.4 24.9-1.4 33.9l-.8 .8 74.4 74.4c10 10 16.5 22.3 19.4 35.1l74.8 0zM64 336a16 16 0 1 0 -32 0 16 16 0 1 0 32 0zm528 16a16 16 0 1 0 0-32 16 16 0 1 0 0 32z"/></symbol>
  <symbol id="chart-icon" viewBox="0 0 448 512"><path fill="var(--icon-fill, currentColor)" fill-rule="evenodd" d="M160 80c0-26.5 21.5-48 48-48l32 0c26.5 0 48 21.5 48 48l0 352c0 26.5-21.5 48-48 48l-32 0c-26.5 0-48-21.5-48-48l0-352zM0 272c0-26.5 21.5-48 48-48l32 0c26.5 0 48 21.5 48 48l0 160c0 26.5-21.5 48-48 48l-32 0c-26.5 0-48-21.5-48-48L0 272zM368 96l32 0c26.5 0 48 21.5 48 48l0 288c0 26.5-21.5 48-48 48l-32 0c-26.5 0-48-21.5-48-48l0-288c0-26.5 21.5-48 48-48z"/></symbol>
  <symbol id="tableau-icon" viewBox="0 0 50 50"><path fill="var(--icon-fill, currentColor)" fill-rule="evenodd" d="M 23.5 0 L 23.5 4.5 L 19.5 4.5 L 19.5 6.5 L 23.5 6.5 L 23.5 11 L 25.5 11 L 25.5 6.5 L 29.5 6.5 L 29.5 4.5 L 25.5 4.5 L 25.5 0 L 23.5 0 z M 11 5 L 11 11 L 5 11 L 5 13 L 11 13 L 11 19 L 13 19 L 13 13 L 19 13 L 19 11 L 13 11 L 13 5 L 11 5 z M 36 5 L 36 11 L 30 11 L 30 13 L 36 13 L 36 19 L 38 19 L 38 13 L 44 13 L 44 11 L 38 11 L 38 5 L 36 5 z M 23 16 L 23 23 L 16 23 L 16 26 L 23 26 L 23 33 L 26 33 L 26 26 L 33 26 L 33 23 L 26 23 L 26 16 L 23 16 z M 5 19 L 5 23.5 L 1 23.5 L 1 25.5 L 5 25.5 L 5 30 L 7 30 L 7 25.5 L 11 25.5 L 11 23.5 L 7 23.5 L 7 19 L 5 19 z M 43 19 L 43 23.5 L 39 23.5 L 39 25.5 L 43 25.5 L 43 30 L 45 30 L 45 25.5 L 49 25.5 L 49 23.5 L 45 23.5 L 45 19 L 43 19 z M 11 29 L 11 35 L 5 35 L 5 37 L 11 37 L 11 43 L 13 43 L 13 37 L 19 37 L 19 35 L 13 35 L 13 29 L 11 29 z M 36 29 L 36 35 L 30 35 L 30 37 L 36 37 L 36 43 L 38 43 L 38 37 L 44 37 L 44 35 L 38 35 L 38 29 L 36 29 z M 23.5 38 L 23.5 42.5 L 19.5 42.5 L 19.5 44.5 L 23.5 44.5 L 23.5 49 L 25.5 49 L 25.5 44.5 L 29.5 44.5 L 29.5 42.5 L 25.5 42.5 L 25.5 38 L 23.5 38 z"/></symbol>
  <symbol id="coding-icon" viewBox="0 0 640 512"><path fill="var(--icon-fill, currentColor)" fill-rule="evenodd" d="M392.8 1.2c-17-4.9-34.7 5-39.6 22l-128 448c-4.9 17 5 34.7 22 39.6s34.7-5 39.6-22l128-448c4.9-17-5-34.7-22-39.6zm80.6 120.1c-12.5 12.5-12.5 32.8 0 45.3L562.7 256l-89.4 89.4c-12.5 12.5-12.5 32.8 0 45.3s32.8 12.5 45.3 0l112-112c12.5-12.5 12.5-32.8 0-45.3l-112-112c-12.5-12.5-32.8-12.5-45.3 0zm-306.7 0c-12.5-12.5-32.8-12.5-45.3 0l-112 112c-12.5 12.5-12.5 32.8 0 45.3l112 112c12.5 12.5 32.8 12.5 45.3 0s12.5-32.8 0-45.3L77.3 256l89.4-89.4c12.5-12.5 12.5-32.8 0-45.3z"/></symbol>
  <symbol id="robot-icon" viewBox="0 0 640 512"><path fill="var(--icon-fill, currentColor)" fill-rule="evenodd" d="M320 0c17.7 0 32 14.3 32 32l0 64 120 0c39.8 0 72 32.2 72 72l0 272c0 39.8-32.2 72-72 72l-304 0c-39.8 0-72-32.2-72-72l0-272c0-39.8 32.2-72 72-72l120 0 0-64c0-17.7 14.3-32 32-32zM208 384c-8.8 0-16 7.2-16 16s7.2 16 16 16l32 0c8.8 0 16-7.2 16-16s-7.2-16-16-16l-32 0zm96 0c-8.8 0-16 7.2-16 16s7.2 16 16 16l32 0c8.8 0 16-7.2 16-16s-7.2-16-16-16l-32 0zm96 0c-8.8 0-16 7.2-16 16s7.2 16 16 16l32 0c8.8 0 16-7.2 16-16s-7.2-16-16-16l-32 0zM264 256a40 40 0 1 0 -80 0 40 40 0 1 0 80 0zm152 40a40 40 0 1 0 0-80 40 40 0 1 0 0 80zM48 224l16 0 0 192-16 0c-26.5 0-48-21.5-48-48l0-96c0-26.5 21.5-48 48-48zm544 0c26.5 0 48 21.5 48 48l0 96c0 26.5-21.5 48-48 48l-16 0 0-192 16 0z"/></symbol>
  <symbol id="git-icon" viewBox="0 0 448 512"><path fill="var(--icon-fill, currentColor)" fill-rule="evenodd" d="M439.6 236.1L244 40.5a28.9 28.9 0 0 0 -40.8 0l-40.7 40.6 51.5 51.5c27.1-9.1 52.7 16.8 43.4 43.7l49.7 49.7c34.2-11.8 61.2 31 35.5 56.7-26.5 26.5-70.2-2.9-56-37.3L240.2 199v121.9c25.3 12.5 22.3 41.9 9.1 55a34.3 34.3 0 0 1 -48.6 0c-17.6-17.6-11.1-46.9 11.3-56v-123c-20.8-8.5-24.6-30.7-18.6-45L142.6 101 8.5 235.1a28.9 28.9 0 0 0 0 40.8l195.6 195.6a28.9 28.9 0 0 0 40.8 0l194.7-194.7a28.9 28.9 0 0 0 0-40.8z"/></symbol>
  <symbol id="python-icon" viewBox="0 0 448 512"><path fill="var(--icon-fill, currentColor)" fill-rule="evenodd" d="M439.8 200.5c-7.7-30.9-22.3-54.2-53.4-54.2h-40.1v47.4c0 36.8-31.2 67.8-66.8 67.8H172.7c-29.2 0-53.4 25-53.4 54.3v101.8c0 29 25.2 46 53.4 54.3 33.8 9.9 66.3 11.7 106.8 0 26.9-7.8 53.4-23.5 53.4-54.3v-40.7H226.2v-13.6h160.2c31.1 0 42.6-21.7 53.4-54.2 11.2-33.5 10.7-65.7 0-108.6zM286.2 404c11.1 0 20.1 9.1 20.1 20.3 0 11.3-9 20.4-20.1 20.4-11 0-20.1-9.2-20.1-20.4 .1-11.3 9.1-20.3 20.1-20.3zM167.8 248.1h106.8c29.7 0 53.4-24.5 53.4-54.3V91.9c0-29-24.4-50.7-53.4-55.6-35.8-5.9-74.7-5.6-106.8 .1-45.2 8-53.4 24.7-53.4 55.6v40.7h106.9v13.6h-147c-31.1 0-58.3 18.7-66.8 54.2-9.8 40.7-10.2 66.1 0 108.6 7.6 31.6 25.7 54.2 56.8 54.2H101v-48.8c0-35.3 30.5-66.4 66.8-66.4zm-6.7-142.6c-11.1 0-20.1-9.1-20.1-20.3 .1-11.3 9-20.4 20.1-20.4 11 0 20.1 9.2 20.1 20.4s-9 20.3-20.1 20.3z"/></symbol>
  <symbol id="database-icon" viewBox="0 0 448 512"><path fill="var(--icon-fill, currentColor)" fill-rule="evenodd" d="M448 80l0 48c0 44.2-100.3 80-224 80S0 172.2 0 128L0 80C0 35.8 100.3 0 224 0S448 35.8 448 80zM393.2 214.7c20.8-7.4 39.9-16.9 54.8-28.6L448 288c0 44.2-100.3 80-224 80S0 332.2 0 288L0 186.1c14.9 11.8 34 21.2 54.8 28.6C99.7 230.7 159.5 240 224 240s124.3-9.3 169.2-25.3zM0 346.1c14.9 11.8 34 21.2 54.8 28.6C99.7 390.7 159.5 400 224 400s124.3-9.3 169.2-25.3c20.8-7.4 39.9-16.9 54.8-28.6l0 85.9c0 44.2-100.3 80-224 80S0 476.2 0 432l0-85.9z"/></symbol>
  <symbol id="screwdriver-wrench-icon" viewBox="0 0 512 512"><path fill="var(--icon-fill, currentColor)" fill-rule="evenodd" d="M78.6 5C69.1-2.4 55.6-1.5 47 7L7 47c-8.5 8.5-9.4 22-2.1 31.6l80 104c4.5 5.9 11.6 9.4 19 9.4l54.1 0 109 109c-14.7 29-10 65.4 14.3 89.6l112 112c12.5 12.5 32.8 12.5 45.3 0l64-64c12.5-12.5 12.5-32.8 0-45.3l-112-112c-24.2-24.2-60.6-29-89.6-14.3l-109-109 0-54.1c0-7.5-3.5-14.5-9.4-19L78.6 5zM19.9 396.1C7.2 408.8 0 426.1 0 444.1C0 481.6 30.4 512 67.9 512c18 0 35.3-7.2 48-19.9L233.7 374.3c-7.8-20.9-9-43.6-3.6-65.1l-61.7-61.7L19.9 396.1zM512 144c0-10.5-1.1-20.7-3.2-30.5c-2.4-11.2-16.1-14.1-24.2-6l-63.9 63.9c-3 3-7.1 4.7-11.3 4.7L352 176c-8.8 0-16-7.2-16-16l0-57.4c0-4.2 1.7-8.3 4.7-11.3l63.9-63.9c8.1-8.1 5.2-21.8-6-24.2C388.7 1.1 378.5 0 368 0C288.5 0 224 64.5 224 144l0 .8 85.3 85.3c36-9.1 75.8 .5 104 28.7L429 274.5c49-23 83-72.8 83-130.5zM56 432a24 24 0 1 1 48 0 24 24 0 1 1 -48 0z"/></symbol>
  <symbol id="shield-icon" viewBox="0 0 512 512"><path fill="var(--icon-fill, currentColor)" fill-rule="evenodd" d="M256 0c4.6 0 9.2 1 13.4 2.9L457.7 82.8c22 9.3 38.4 31 38.3 57.2c-.5 99.2-41.3 280.7-213.6 363.2c-16.7 8-36.1 8-52.8 0C57.3 420.7 16.5 239.2 16 140c-.1-26.2 16.3-47.9 38.3-57.2L242.7 2.9C246.8 1 251.4 0 256 0z"/></symbol>
  <symbol id="user-secret-icon" viewBox="0 0 448 512"><path fill="var(--icon-fill, currentColor)" fill-rule="evenodd" d="M224 16c-6.7 0-10.8-2.8-15.5-6.1C201.9 5.4 194 0 176 0c-30.5 0-52 43.7-66 89.4C62.7 98.1 32 112.2 32 128c0 14.3 25 27.1 64.6 35.9c-.4 4-.6 8-.6 12.1c0 17 3.3 33.2 9.3 48l-59.9 0C38 224 32 230 32 237.4c0 1.7 .3 3.4 1 5l38.8 96.9C28.2 371.8 0 423.8 0 482.3C0 498.7 13.3 512 29.7 512l388.6 0c16.4 0 29.7-13.3 29.7-29.7c0-58.5-28.2-110.4-71.7-143L415 242.4c.6-1.6 1-3.3 1-5c0-7.4-6-13.4-13.4-13.4l-59.9 0c6-14.8 9.3-31 9.3-48c0-4.1-.2-8.1-.6-12.1C391 155.1 416 142.3 416 128c0-15.8-30.7-29.9-78-38.6C324 43.7 302.5 0 272 0c-18 0-25.9 5.4-32.5 9.9c-4.8 3.3-8.8 6.1-15.5 6.1zm56 208l-12.4 0c-16.5 0-31.1-10.6-36.3-26.2c-2.3-7-12.2-7-14.5 0c-5.2 15.6-19.9 26.2-36.3 26.2L168 224c-22.1 0-40-17.9-40-40l0-14.4c28.2 4.1 61 6.4 96 6.4s67.8-2.3 96-6.4l0 14.4c0 22.1-17.9 40-40 40zm-88 96l16 32L176 480 128 288l64 32zm128-32L272 480 240 352l16-32 64-32z"/></symbol>
  <symbol id="linux-icon" viewBox="0 0 448 512"><path fill="var(--icon-fill, currentColor)" fill-rule="evenodd" d="M220.8 123.3c1 .5 1.8 1.7 3 1.7 1.1 0 2.8-.4 2.9-1.5 .2-1.4-1.9-2.3-3.2-2.9-1.7-.7-3.9-1-5.5-.1-.4 .2-.8 .7-.6 1.1 .3 1.3 2.3 1.1 3.4 1.7zm-21.9 1.7c1.2 0 2-1.2 3-1.7 1.1-.6 3.1-.4 3.5-1.6 .2-.4-.2-.9-.6-1.1-1.6-.9-3.8-.6-5.5 .1-1.3 .6-3.4 1.5-3.2 2.9 .1 1 1.8 1.5 2.8 1.4zM420 403.8c-3.6-4-5.3-11.6-7.2-19.7-1.8-8.1-3.9-16.8-10.5-22.4-1.3-1.1-2.6-2.1-4-2.9-1.3-.8-2.7-1.5-4.1-2 9.2-27.3 5.6-54.5-3.7-79.1-11.4-30.1-31.3-56.4-46.5-74.4-17.1-21.5-33.7-41.9-33.4-72C311.1 85.4 315.7 .1 234.8 0 132.4-.2 158 103.4 156.9 135.2c-1.7 23.4-6.4 41.8-22.5 64.7-18.9 22.5-45.5 58.8-58.1 96.7-6 17.9-8.8 36.1-6.2 53.3-6.5 5.8-11.4 14.7-16.6 20.2-4.2 4.3-10.3 5.9-17 8.3s-14 6-18.5 14.5c-2.1 3.9-2.8 8.1-2.8 12.4 0 3.9 .6 7.9 1.2 11.8 1.2 8.1 2.5 15.7 .8 20.8-5.2 14.4-5.9 24.4-2.2 31.7 3.8 7.3 11.4 10.5 20.1 12.3 17.3 3.6 40.8 2.7 59.3 12.5 19.8 10.4 39.9 14.1 55.9 10.4 11.6-2.6 21.1-9.6 25.9-20.2 12.5-.1 26.3-5.4 48.3-6.6 14.9-1.2 33.6 5.3 55.1 4.1 .6 2.3 1.4 4.6 2.5 6.7v.1c8.3 16.7 23.8 24.3 40.3 23 16.6-1.3 34.1-11 48.3-27.9 13.6-16.4 36-23.2 50.9-32.2 7.4-4.5 13.4-10.1 13.9-18.3 .4-8.2-4.4-17.3-15.5-29.7zM223.7 87.3c9.8-22.2 34.2-21.8 44-.4 6.5 14.2 3.6 30.9-4.3 40.4-1.6-.8-5.9-2.6-12.6-4.9 1.1-1.2 3.1-2.7 3.9-4.6 4.8-11.8-.2-27-9.1-27.3-7.3-.5-13.9 10.8-11.8 23-4.1-2-9.4-3.5-13-4.4-1-6.9-.3-14.6 2.9-21.8zM183 75.8c10.1 0 20.8 14.2 19.1 33.5-3.5 1-7.1 2.5-10.2 4.6 1.2-8.9-3.3-20.1-9.6-19.6-8.4 .7-9.8 21.2-1.8 28.1 1 .8 1.9-.2-5.9 5.5-15.6-14.6-10.5-52.1 8.4-52.1zm-13.6 60.7c6.2-4.6 13.6-10 14.1-10.5 4.7-4.4 13.5-14.2 27.9-14.2 7.1 0 15.6 2.3 25.9 8.9 6.3 4.1 11.3 4.4 22.6 9.3 8.4 3.5 13.7 9.7 10.5 18.2-2.6 7.1-11 14.4-22.7 18.1-11.1 3.6-19.8 16-38.2 14.9-3.9-.2-7-1-9.6-2.1-8-3.5-12.2-10.4-20-15-8.6-4.8-13.2-10.4-14.7-15.3-1.4-4.9 0-9 4.2-12.3zm3.3 334c-2.7 35.1-43.9 34.4-75.3 18-29.9-15.8-68.6-6.5-76.5-21.9-2.4-4.7-2.4-12.7 2.6-26.4v-.2c2.4-7.6 .6-16-.6-23.9-1.2-7.8-1.8-15 .9-20 3.5-6.7 8.5-9.1 14.8-11.3 10.3-3.7 11.8-3.4 19.6-9.9 5.5-5.7 9.5-12.9 14.3-18 5.1-5.5 10-8.1 17.7-6.9 8.1 1.2 15.1 6.8 21.9 16l19.6 35.6c9.5 19.9 43.1 48.4 41 68.9zm-1.4-25.9c-4.1-6.6-9.6-13.6-14.4-19.6 7.1 0 14.2-2.2 16.7-8.9 2.3-6.2 0-14.9-7.4-24.9-13.5-18.2-38.3-32.5-38.3-32.5-13.5-8.4-21.1-18.7-24.6-29.9s-3-23.3-.3-35.2c5.2-22.9 18.6-45.2 27.2-59.2 2.3-1.7 .8 3.2-8.7 20.8-8.5 16.1-24.4 53.3-2.6 82.4 .6-20.7 5.5-41.8 13.8-61.5 12-27.4 37.3-74.9 39.3-112.7 1.1 .8 4.6 3.2 6.2 4.1 4.6 2.7 8.1 6.7 12.6 10.3 12.4 10 28.5 9.2 42.4 1.2 6.2-3.5 11.2-7.5 15.9-9 9.9-3.1 17.8-8.6 22.3-15 7.7 30.4 25.7 74.3 37.2 95.7 6.1 11.4 18.3 35.5 23.6 64.6 3.3-.1 7 .4 10.9 1.4 13.8-35.7-11.7-74.2-23.3-84.9-4.7-4.6-4.9-6.6-2.6-6.5 12.6 11.2 29.2 33.7 35.2 59 2.8 11.6 3.3 23.7 .4 35.7 16.4 6.8 35.9 17.9 30.7 34.8-2.2-.1-3.2 0-4.2 0 3.2-10.1-3.9-17.6-22.8-26.1-19.6-8.6-36-8.6-38.3 12.5-12.1 4.2-18.3 14.7-21.4 27.3-2.8 11.2-3.6 24.7-4.4 39.9-.5 7.7-3.6 18-6.8 29-32.1 22.9-76.7 32.9-114.3 7.2zm257.4-11.5c-.9 16.8-41.2 19.9-63.2 46.5-13.2 15.7-29.4 24.4-43.6 25.5s-26.5-4.8-33.7-19.3c-4.7-11.1-2.4-23.1 1.1-36.3 3.7-14.2 9.2-28.8 9.9-40.6 .8-15.2 1.7-28.5 4.2-38.7 2.6-10.3 6.6-17.2 13.7-21.1 .3-.2 .7-.3 1-.5 .8 13.2 7.3 26.6 18.8 29.5 12.6 3.3 30.7-7.5 38.4-16.3 9-.3 15.7-.9 22.6 5.1 9.9 8.5 7.1 30.3 17.1 41.6 10.6 11.6 14 19.5 13.7 24.6zM173.3 148.7c2 1.9 4.7 4.5 8 7.1 6.6 5.2 15.8 10.6 27.3 10.6 11.6 0 22.5-5.9 31.8-10.8 4.9-2.6 10.9-7 14.8-10.4s5.9-6.3 3.1-6.6-2.6 2.6-6 5.1c-4.4 3.2-9.7 7.4-13.9 9.8-7.4 4.2-19.5 10.2-29.9 10.2s-18.7-4.8-24.9-9.7c-3.1-2.5-5.7-5-7.7-6.9-1.5-1.4-1.9-4.6-4.3-4.9-1.4-.1-1.8 3.7 1.7 6.5z"/></symbol>
  <symbol id="pen-ruler-icon" viewBox="0 0 512 512"><path fill="var(--icon-fill, currentColor)" fill-rule="evenodd" d="M469.3 19.3l23.4 23.4c25 25 25 65.5 0 90.5l-56.4 56.4L322.3 75.7l56.4-56.4c25-25 65.5-25 90.5 0zM44.9 353.2L299.7 98.3 413.7 212.3 158.8 467.1c-6.7 6.7-15.1 11.6-24.2 14.2l-104 29.7c-8.4 2.4-17.4 .1-23.6-6.1s-8.5-15.2-6.1-23.6l29.7-104c2.6-9.2 7.5-17.5 14.2-24.2zM249.4 103.4L103.4 249.4 16 161.9c-18.7-18.7-18.7-49.1 0-67.9L94.1 16c18.7-18.7 49.1-18.7 67.9 0l19.8 19.8c-.3 .3-.7 .6-1 .9l-64 64c-6.2 6.2-6.2 16.4 0 22.6s16.4 6.2 22.6 0l64-64c.3-.3 .6-.7 .9-1l45.1 45.1zM408.6 262.6l45.1 45.1c-.3 .3-.7 .6-1 .9l-64 64c-6.2 6.2-6.2 16.4 0 22.6s16.4 6.2 22.6 0l64-64c.3-.3 .6-.7 .9-1L496 350.1c18.7 18.7 18.7 49.1 0 67.9L417.9 496c-18.7 18.7-49.1 18.7-67.9 0l-87.4-87.4L408.6 262.6z"/></symbol>
  <symbol id="menu-icon" viewBox="0 0 24 24"><path fill="var(--icon-fill, currentColor)" fill-rule="evenodd" d="M4 11h12v2H4zm0-5h16v2H4zm0 12h7.235v-2H4z"/></symbol>
  <symbol id="close-icon" viewBox="0 0 24 24"><path fill="var(--icon-fill, currentColor)" fill-rule="evenodd" d="m16.192 6.344-4.243 4.242-4.242-4.242-1.414 1.414L10.535 12l-4.242 4.242 1.414 1.414 4.242-4.242 4.243 4.242 1.414-1.414L13.364 12l4.242-4.242zz"/></symbol>
  <symbol id="top-icon" viewBox="0 0 24 24"><path fill="var(--icon-fill, currentColor)" fill-rule="evenodd" d="M5 15h4v6h6v-6h4l-7-8zM4 3h16v2H4z"/></symbol>
  <symbol id="happy-icon" viewBox="0 0 512 512"><path fill="var(--icon-fill, currentColor)" fill-rule="evenodd" d="M464 256A208 208 0 1 0 48 256a208 208 0 1 0 416 0zM0 256a256 256 0 1 1 512 0A256 256 0 1 1 0 256zm177.6 62.1C192.8 334.5 218.8 352 256 352s63.2-17.5 78.4-33.9c9-9.7 24.2-10.4 33.9-1.4s10.4 24.2 1.4 33.9c-22 23.8-60 49.4-113.6 49.4s-91.7-25.5-113.6-49.4c-9-9.7-8.4-24.9 1.4-33.9s24.9-8.4 33.9 1.4zM144.4 208a32 32 0 1 1 64 0 32 32 0 1 1 -64 0zm192-32a32 32 0 1 1 0 64 32 32 0 1 1 0-64z"/></symbol>
  <symbol id="project-icon" viewBox="0 0 640 512"><path fill="var(--icon-fill, currentColor)" fill-rule="evenodd" d="M128 0C92.7 0 64 28.7 64 64l0 224-44.8 0C8.6 288 0 296.6 0 307.2C0 349.6 34.4 384 76.8 384L320 384l0-96-192 0 0-224 320 0 0 32 64 0 0-32c0-35.3-28.7-64-64-64L128 0zM512 128l-112 0c-26.5 0-48 21.5-48 48l0 288c0 26.5 21.5 48 48 48l192 0c26.5 0 48-21.5 48-48l0-208-96 0c-17.7 0-32-14.3-32-32l0-96zm32 0l0 96 96 0-96-96z"/></symbol>
  <symbol id="working-icon" viewBox="0 0 640 512"><path fill="var(--icon-fill, currentColor)" fill-rule="evenodd" d="M64 96c0-35.3 28.7-64 64-64l384 0c35.3 0 64 28.7 64 64l0 256-64 0 0-256L128 96l0 256-64 0L64 96zM0 403.2C0 392.6 8.6 384 19.2 384l601.6 0c10.6 0 19.2 8.6 19.2 19.2c0 42.4-34.4 76.8-76.8 76.8L76.8 480C34.4 480 0 445.6 0 403.2zM281 209l-31 31 31 31c9.4 9.4 9.4 24.6 0 33.9s-24.6 9.4-33.9 0l-48-48c-9.4-9.4-9.4-24.6 0-33.9l48-48c9.4-9.4 24.6-9.4 33.9 0s9.4 24.6 0 33.9zM393 175l48 48c9.4 9.4 9.4 24.6 0 33.9l-48 48c-9.4 9.4-24.6 9.4-33.9 0s-9.4-24.6 0-33.9l31-31-31-31c-9.4-9.4-9.4-24.6 0-33.9s24.6-9.4 33.9 0z"/></symbol>
  <symbol id="certificate-icon" viewBox="0 0 512 512"><path fill="var(--icon-fill, currentColor)" fill-rule="evenodd" d="M211 7.3C205 1 196-1.4 187.6 .8s-14.9 8.9-17.1 17.3L154.7 80.6l-62-17.5c-8.4-2.4-17.4 0-23.5 6.1s-8.5 15.1-6.1 23.5l17.5 62L18.1 170.6c-8.4 2.1-15 8.7-17.3 17.1S1 205 7.3 211l46.2 45L7.3 301C1 307-1.4 316 .8 324.4s8.9 14.9 17.3 17.1l62.5 15.8-17.5 62c-2.4 8.4 0 17.4 6.1 23.5s15.1 8.5 23.5 6.1l62-17.5 15.8 62.5c2.1 8.4 8.7 15 17.1 17.3s17.3-.2 23.4-6.4l45-46.2 45 46.2c6.1 6.2 15 8.7 23.4 6.4s14.9-8.9 17.1-17.3l15.8-62.5 62 17.5c8.4 2.4 17.4 0 23.5-6.1s8.5-15.1 6.1-23.5l-17.5-62 62.5-15.8c8.4-2.1 15-8.7 17.3-17.1s-.2-17.4-6.4-23.4l-46.2-45 46.2-45c6.2-6.1 8.7-15 6.4-23.4s-8.9-14.9-17.3-17.1l-62.5-15.8 17.5-62c2.4-8.4 0-17.4-6.1-23.5s-15.1-8.5-23.5-6.1l-62 17.5L341.4 18.1c-2.1-8.4-8.7-15-17.1-17.3S307 1 301 7.3L256 53.5 211 7.3z"/></symbol>
  <symbol id="html-icon" viewBox="0 0 384 512"><path fill="var(--icon-fill, #e34c26)" fill-rule="evenodd" d="M0 32l34.9 395.8L191.5 480l157.6-52.2L384 32H0zm308.2 127.9H124.4l4.1 49.4h175.6l-13.6 148.4-97.9 27v.3h-1.1l-98.7-27.3-6-75.8h47.7L138 320l53.5 14.5 53.7-14.5 6-62.2H84.3L71.5 112.2h241.1l-4.4 47.7z"/></symbol>
  <symbol id="css-icon" viewBox="0 0 384 512"><path fill="var(--icon-fill, #264de4)" fill-rule="evenodd" d="M0 32l34.9 395.8L192 480l157.1-52.2L384 32H0zm313.1 80l-4.8 47.3L193 208.6l-.3 .1h111.5l-12.8 146.6-98.2 28.7-98.8-29.2-6.4-73.9h48.9l3.2 38.3 52.6 13.3 54.7-15.4 3.7-61.6-166.3-.5v-.1l-.2 .1-3.6-46.3L193.1 162l6.5-2.7H76.7L70.9 112h242.2z"/></symbol>
  <symbol id="javascript-icon" viewBox="0 0 448 512"><path fill="var(--icon-fill, #f7df1e)" fill-rule="evenodd" d="M0 32v448h448V32H0zm243.8 349.4c0 43.6-25.6 63.5-62.9 63.5-33.7 0-53.2-17.4-63.2-38.5l34.3-20.7c6.6 11.7 12.6 21.6 27.1 21.6 13.8 0 22.6-5.4 22.6-26.5V237.7h42.1v143.7zm99.6 63.5c-39.1 0-64.4-18.6-76.7-43l34.3-19.8c9 14.7 20.8 25.6 41.5 25.6 17.4 0 28.6-8.7 28.6-20.8 0-14.4-11.4-19.5-30.7-28l-10.5-4.5c-30.4-12.9-50.5-29.2-50.5-63.5 0-31.6 24.1-55.6 61.6-55.6 26.8 0 46 9.3 59.8 33.7L368 290c-7.2-12.9-15-18-27.1-18-12.3 0-20.1 7.8-20.1 18 0 12.6 7.8 17.7 25.9 25.6l10.5 4.5c35.8 15.3 55.9 31 55.9 66.2 0 37.8-29.8 58.6-69.7 58.6z"/></symbol>
  <symbol id="react-icon" viewBox="0 0 512 512"><path fill="var(--icon-fill, #087ea4)" fill-rule="evenodd" d="M418.2 177.2c-5.4-1.8-10.8-3.5-16.2-5.1 .9-3.7 1.7-7.4 2.5-11.1 12.3-59.6 4.2-107.5-23.1-123.3-26.3-15.1-69.2 .6-112.6 38.4-4.3 3.7-8.5 7.6-12.5 11.5-2.7-2.6-5.5-5.2-8.3-7.7-45.5-40.4-91.1-57.4-118.4-41.5-26.2 15.2-34 60.3-23 116.7 1.1 5.6 2.3 11.1 3.7 16.7-6.4 1.8-12.7 3.8-18.6 5.9C38.3 196.2 0 225.4 0 255.6c0 31.2 40.8 62.5 96.3 81.5 4.5 1.5 9 3 13.6 4.3-1.5 6-2.8 11.9-4 18-10.5 55.5-2.3 99.5 23.9 114.6 27 15.6 72.4-.4 116.6-39.1 3.5-3.1 7-6.3 10.5-9.7 4.4 4.3 9 8.4 13.6 12.4 42.8 36.8 85.1 51.7 111.2 36.6 27-15.6 35.8-62.9 24.4-120.5-.9-4.4-1.9-8.9-3-13.5 3.2-.9 6.3-1.9 9.4-2.9 57.7-19.1 99.5-50 99.5-81.7 0-30.3-39.4-59.7-93.8-78.4zM282.9 92.3c37.2-32.4 71.9-45.1 87.7-36 16.9 9.7 23.4 48.9 12.8 100.4-.7 3.4-1.4 6.7-2.3 10-22.2-5-44.7-8.6-67.3-10.6-13-18.6-27.2-36.4-42.6-53.1 3.9-3.7 7.7-7.2 11.7-10.7zM167.2 307.5c5.1 8.7 10.3 17.4 15.8 25.9-15.6-1.7-31.1-4.2-46.4-7.5 4.4-14.4 9.9-29.3 16.3-44.5 4.6 8.8 9.3 17.5 14.3 26.1zm-30.3-120.3c14.4-3.2 29.7-5.8 45.6-7.8-5.3 8.3-10.5 16.8-15.4 25.4-4.9 8.5-9.7 17.2-14.2 26-6.3-14.9-11.6-29.5-16-43.6zm27.4 68.9c6.6-13.8 13.8-27.3 21.4-40.6s15.8-26.2 24.4-38.9c15-1.1 30.3-1.7 45.9-1.7s31 .6 45.9 1.7c8.5 12.6 16.6 25.5 24.3 38.7s14.9 26.7 21.7 40.4c-6.7 13.8-13.9 27.4-21.6 40.8-7.6 13.3-15.7 26.2-24.2 39-14.9 1.1-30.4 1.6-46.1 1.6s-30.9-.5-45.6-1.4c-8.7-12.7-16.9-25.7-24.6-39s-14.8-26.8-21.5-40.6zm180.6 51.2c5.1-8.8 9.9-17.7 14.6-26.7 6.4 14.5 12 29.2 16.9 44.3-15.5 3.5-31.2 6.2-47 8 5.4-8.4 10.5-17 15.5-25.6zm14.4-76.5c-4.7-8.8-9.5-17.6-14.5-26.2-4.9-8.5-10-16.9-15.3-25.2 16.1 2 31.5 4.7 45.9 8-4.6 14.8-10 29.2-16.1 43.4zM256.2 118.3c10.5 11.4 20.4 23.4 29.6 35.8-19.8-.9-39.7-.9-59.5 0 9.8-12.9 19.9-24.9 29.9-35.8zM140.2 57c16.8-9.8 54.1 4.2 93.4 39 2.5 2.2 5 4.6 7.6 7-15.5 16.7-29.8 34.5-42.9 53.1-22.6 2-45 5.5-67.2 10.4-1.3-5.1-2.4-10.3-3.5-15.5-9.4-48.4-3.2-84.9 12.6-94zm-24.5 263.6c-4.2-1.2-8.3-2.5-12.4-3.9-21.3-6.7-45.5-17.3-63-31.2-10.1-7-16.9-17.8-18.8-29.9 0-18.3 31.6-41.7 77.2-57.6 5.7-2 11.5-3.8 17.3-5.5 6.8 21.7 15 43 24.5 63.6-9.6 20.9-17.9 42.5-24.8 64.5zm116.6 98c-16.5 15.1-35.6 27.1-56.4 35.3-11.1 5.3-23.9 5.8-35.3 1.3-15.9-9.2-22.5-44.5-13.5-92 1.1-5.6 2.3-11.2 3.7-16.7 22.4 4.8 45 8.1 67.9 9.8 13.2 18.7 27.7 36.6 43.2 53.4-3.2 3.1-6.4 6.1-9.6 8.9zm24.5-24.3c-10.2-11-20.4-23.2-30.3-36.3 9.6 .4 19.5 .6 29.5 .6 10.3 0 20.4-.2 30.4-.7-9.2 12.7-19.1 24.8-29.6 36.4zm130.7 30c-.9 12.2-6.9 23.6-16.5 31.3-15.9 9.2-49.8-2.8-86.4-34.2-4.2-3.6-8.4-7.5-12.7-11.5 15.3-16.9 29.4-34.8 42.2-53.6 22.9-1.9 45.7-5.4 68.2-10.5 1 4.1 1.9 8.2 2.7 12.2 4.9 21.6 5.7 44.1 2.5 66.3zm18.2-107.5c-2.8 .9-5.6 1.8-8.5 2.6-7-21.8-15.6-43.1-25.5-63.8 9.6-20.4 17.7-41.4 24.5-62.9 5.2 1.5 10.2 3.1 15 4.7 46.6 16 79.3 39.8 79.3 58 0 19.6-34.9 44.9-84.8 61.4zm-149.7-15c25.3 0 45.8-20.5 45.8-45.8s-20.5-45.8-45.8-45.8c-25.3 0-45.8 20.5-45.8 45.8s20.5 45.8 45.8 45.8z"/></symbol>
  <symbol id="wordpress-icon" viewBox="0 0 512 512"><path fill="var(--icon-fill, #00749c)" fill-rule="evenodd" d="M61.7 169.4l101.5 278C92.2 413 43.3 340.2 43.3 256c0-30.9 6.6-60.1 18.4-86.6zm337.9 75.9c0-26.3-9.4-44.5-17.5-58.7-10.8-17.5-20.9-32.4-20.9-49.9 0-19.6 14.8-37.8 35.7-37.8 .9 0 1.8 .1 2.8 .2-37.9-34.7-88.3-55.9-143.7-55.9-74.3 0-139.7 38.1-177.8 95.9 5 .2 9.7 .3 13.7 .3 22.2 0 56.7-2.7 56.7-2.7 11.5-.7 12.8 16.2 1.4 17.5 0 0-11.5 1.3-24.3 2l77.5 230.4L249.8 247l-33.1-90.8c-11.5-.7-22.3-2-22.3-2-11.5-.7-10.1-18.2 1.3-17.5 0 0 35.1 2.7 56 2.7 22.2 0 56.7-2.7 56.7-2.7 11.5-.7 12.8 16.2 1.4 17.5 0 0-11.5 1.3-24.3 2l76.9 228.7 21.2-70.9c9-29.4 16-50.5 16-68.7zm-139.9 29.3l-63.8 185.5c19.1 5.6 39.2 8.7 60.1 8.7 24.8 0 48.5-4.3 70.6-12.1-.6-.9-1.1-1.9-1.5-2.9l-65.4-179.2zm183-120.7c.9 6.8 1.4 14 1.4 21.9 0 21.6-4 45.8-16.2 76.2l-65 187.9C426.2 403 468.7 334.5 468.7 256c0-37-9.4-71.8-26-102.1zM504 256c0 136.8-111.3 248-248 248C119.2 504 8 392.7 8 256 8 119.2 119.2 8 256 8c136.7 0 248 111.2 248 248zm-11.4 0c0-130.5-106.2-236.6-236.6-236.6C125.5 19.4 19.4 125.5 19.4 256S125.6 492.6 256 492.6c130.5 0 236.6-106.1 236.6-236.6z"/></symbol>
  <symbol id="shopify-icon" viewBox="0 0 512 512"><path fill="var(--icon-fill, #96bf48)" fill-rule="evenodd" d="M388.3 104.1a4.7 4.7 0 0 0 -4.4-4c-2 0-37.2-.8-37.2-.8s-21.6-20.8-29.6-28.8V503.2L442.8 472S388.7 106.5 388.3 104.1zM288.7 70.5a116.7 116.7 0 0 0 -7.2-17.6C271 32.9 255.4 22 237 22a15 15 0 0 0 -4 .4c-.4-.8-1.2-1.2-1.6-2C223.4 11.6 213 7.6 200.6 8c-24 .8-48 18-67.3 48.8-13.6 21.6-24 48.8-26.8 70.1-27.6 8.4-46.8 14.4-47.2 14.8-14 4.4-14.4 4.8-16 18-1.2 10-38 291.8-38 291.8L307.9 504V65.7a41.7 41.7 0 0 0 -4.4 .4S297.9 67.7 288.7 70.5zM233.4 87.7c-16 4.8-33.6 10.4-50.8 15.6 4.8-18.8 14.4-37.6 25.6-50 4.4-4.4 10.4-9.6 17.2-12.8C232.2 54.9 233.8 74.5 233.4 87.7zM200.6 24.4A27.5 27.5 0 0 1 215 28c-6.4 3.2-12.8 8.4-18.8 14.4-15.2 16.4-26.8 42-31.6 66.5-14.4 4.4-28.8 8.8-42 12.8C131.3 83.3 163.8 25.2 200.6 24.4zM154.2 244.6c1.6 25.6 69.3 31.2 73.3 91.7 2.8 47.6-25.2 80.1-65.7 82.5-48.8 3.2-75.7-25.6-75.7-25.6l10.4-44s26.8 20.4 48.4 18.8c14-.8 19.2-12.4 18.8-20.4-2-33.6-57.2-31.6-60.8-86.9-3.2-46.4 27.2-93.3 94.5-97.7 26-1.6 39.2 4.8 39.2 4.8L221.4 225.4s-17.2-8-37.6-6.4C154.2 221 153.8 239.8 154.2 244.6zM249.4 82.9c0-12-1.6-29.2-7.2-43.6 18.4 3.6 27.2 24 31.2 36.4Q262.6 78.7 249.4 82.9z"/></symbol>
  <symbol id="globe-icon" viewBox="0 0 512 512"><path fill="var(--icon-fill, currentColor)" fill-rule="evenodd" d="M352 256c0 22.2-1.2 43.6-3.3 64l-185.3 0c-2.2-20.4-3.3-41.8-3.3-64s1.2-43.6 3.3-64l185.3 0c2.2 20.4 3.3 41.8 3.3 64zm28.8-64l123.1 0c5.3 20.5 8.1 41.9 8.1 64s-2.8 43.5-8.1 64l-123.1 0c2.1-20.6 3.2-42 3.2-64s-1.1-43.4-3.2-64zm112.6-32l-116.7 0c-10-63.9-29.8-117.4-55.3-151.6c78.3 20.7 142 77.5 171.9 151.6zm-149.1 0l-176.6 0c6.1-36.4 15.5-68.6 27-94.7c10.5-23.6 22.2-40.7 33.5-51.5C239.4 3.2 248.7 0 256 0s16.6 3.2 27.8 13.8c11.3 10.8 23 27.9 33.5 51.5c11.6 26 20.9 58.2 27 94.7zm-209 0L18.6 160C48.6 85.9 112.2 29.1 190.6 8.4C165.1 42.6 145.3 96.1 135.3 160zM8.1 192l123.1 0c-2.1 20.6-3.2 42-3.2 64s1.1 43.4 3.2 64L8.1 320C2.8 299.5 0 278.1 0 256s2.8-43.5 8.1-64zM194.7 446.6c-11.6-26-20.9-58.2-27-94.6l176.6 0c-6.1 36.4-15.5 68.6-27 94.6c-10.5 23.6-22.2 40.7-33.5 51.5C272.6 508.8 263.3 512 256 512s-16.6-3.2-27.8-13.8c-11.3-10.8-23-27.9-33.5-51.5zM135.3 352c10 63.9 29.8 117.4 55.3 151.6C112.2 482.9 48.6 426.1 18.6 352l116.7 0zm358.1 0c-30 74.1-93.6 130.9-171.9 151.6c25.5-34.2 45.2-87.7 55.3-151.6l116.7 0z"/></symbol>
  <symbol id="content-icon" viewBox="0 0 24 24"><path fill="var(--icon-fill, currentColor)" fill-rule="evenodd" d="M20 3H4c-1.103 0-2 .897-2 2v14c0 1.103.897 2 2 2h16c1.103 0 2-.897 2-2V5c0-1.103-.897-2-2-2zm-1 4v2h-5V7h5zm-5 4h5v2h-5v-2zM4 19V5h7v14H4z"/></symbol>
  <symbol id="subject-icon" viewBox="0 0 24 24"><path fill="var(--icon-fill, currentColor)" fill-rule="evenodd" d="M20 2H4c-1.103 0-2 .894-2 1.992v12.016C2 17.106 2.897 18 4 18h3v4l6.351-4H20c1.103 0 2-.894 2-1.992V3.992A1.998 1.998 0 0 0 20 2z"/></symbol>
  <symbol id="message-icon" viewBox="0 0 24 24"><path fill="var(--icon-fill, currentColor)" fill-rule="evenodd" d="M20 2H4c-1.103 0-2 .894-2 1.992v12.017C2 17.106 2.897 18 4 18h3v4l6.351-4H20c1.103 0 2-.894 2-1.992V3.992A1.998 1.998 0 0 0 20 2zm-9 8a2 2 0 1 1-2-2c.086 0 .167.015.25.025.082-.014.164-.025.25-.025A1.5 1.5 0 0 1 11 9.5c0 .086-.012.168-.025.25.01.083.025.165.025.25zm4 2a2 2 0 0 1-2-2c0-.086.015-.167.025-.25A1.592 1.592 0 0 1 13 9.5 1.5 1.5 0 0 1 14.5 8c.086 0 .168.011.25.025.083-.01.164-.025.25-.025a2 2 0 0 1 0 4z"/></symbol>
  <symbol id="swipe-icon" viewBox="0 0 118.89 124.52"><path fill="var(--icon-fill, currentColor)" fill-rule="evenodd" d="M42.58,69.16a2.52,2.52,0,0,1-.48-.3c-2-1.55-4.09-3.28-5.94-4.8-2.69-2.21-5.79-4.76-8-6.57a11.36,11.36,0,0,0-4.76-2.4,5.07,5.07,0,0,0-2.69.11,2.82,2.82,0,0,0-1.44,1.48A9.48,9.48,0,0,0,18.75,61a16.75,16.75,0,0,0,1.48,5.35A33.68,33.68,0,0,0,24.14,73a1,1,0,0,1,.18.3L47.67,106.6a2.93,2.93,0,0,1,.52,1.4c.48,3.84,1.29,6.75,2.47,8.56a3.81,3.81,0,0,0,3.43,2H90.83a11,11,0,0,0,6.27-2,20.06,20.06,0,0,0,5.72-6.71s.07-.11.11-.15c.66-1.14,1.55-2.62,2.4-4,3.73-6.12,7-11.47,7.34-19.07l-.22-10.48a1.64,1.64,0,0,1,0-.44c0-.15,0-1.14,0-2.47.07-6.93.18-15.49-6.16-16.56H102.2c0,2-.15,4-.26,5.87-.11,1.73-.22,3.36-.22,4.94a3.06,3.06,0,1,1-6.12,0c0-1.59.11-3.43.22-5.35.41-6.53.89-14-4.32-14.94H87.44a4.93,4.93,0,0,1-.66-.07c0,2.36-.11,4.8-.26,7.16-.11,1.73-.22,3.36-.22,4.94a3.06,3.06,0,0,1-6.12,0c0-1.59.11-3.43.22-5.35.41-6.53.88-14-4.32-14.94H72a3,3,0,0,1-.81-.11V50.65a3.06,3.06,0,1,1-6.12,0v-32c0-5.35-2.18-8.74-5-10.14a7.15,7.15,0,0,0-3.21-.77,7.28,7.28,0,0,0-3.21.77c-2.77,1.4-4.91,4.8-4.91,10.29v56a3.06,3.06,0,0,1-6.12,0V69.16ZM12.29,28.69a2.61,2.61,0,0,0,3.78-3.6L8.7,17.38H30.84a2.61,2.61,0,1,0,0-5.22H8.7l7.38-7.75A2.61,2.61,0,0,0,12.3.81L.72,13a2.62,2.62,0,0,0,0,3.6L12.29,28.69ZM102.52.81a2.61,2.61,0,1,0-3.78,3.6l7.37,7.71H84a2.61,2.61,0,1,0,0,5.22h22.14l-7.38,7.75a2.61,2.61,0,0,0,3.78,3.6l11.58-12.16a2.62,2.62,0,0,0,0-3.6L102.52.81Zm-31.32,32a3,3,0,0,1,.81-.11h4.24a5.53,5.53,0,0,1,.7.07c5.64.89,8.19,4.17,9.22,8.45a3.24,3.24,0,0,1,1.29-.3H91.7a5.53,5.53,0,0,1,.7.07c6.09,1,8.52,4.68,9.41,9.41a1.83,1.83,0,0,1,.48,0h4.24a5.53,5.53,0,0,1,.7.07c11.66,1.81,11.51,13.39,11.4,22.72v2.43l.26,10.77v.33c-.44,9.19-4.06,15.12-8.23,22-.7,1.14-1.4,2.32-2.36,4,0,0,0,.07-.07.11a26.19,26.19,0,0,1-7.56,8.71,17,17,0,0,1-9.7,3.1H54.27a9.62,9.62,0,0,1-8.6-4.65c-1.7-2.51-2.8-6-3.39-10.48L19.41,76.72l-.11-.11a42.42,42.42,0,0,1-4.61-7.78,23.05,23.05,0,0,1-2-7.41,15.16,15.16,0,0,1,1.07-7.23,8.62,8.62,0,0,1,4.76-4.65,10.52,10.52,0,0,1,6.16-.44,17.26,17.26,0,0,1,7.49,3.69c1.84,1.55,4.94,4.06,8,6.53l2.51,2.07V18.84c0-8.15,3.62-13.39,8.3-15.75a13.12,13.12,0,0,1,11.95,0c4.69,2.36,8.37,7.64,8.37,15.64V32.82l-.08,0Z"/></symbol>
  <symbol id="svelte-icon" viewBox="0 0 98.1 118"><path fill="var(--icon-fill, #FF3E00)" fill-rule="evenodd" d="M91.8,15.6C80.9-0.1,59.2-4.7,43.6,5.2L16.1,22.8C8.6,27.5,3.4,35.2,1.9,43.9c-1.3,7.3-0.2,14.8,3.3,21.3 c-2.4,3.6-4,7.6-4.7,11.8c-1.6,8.9,0.5,18.1,5.7,25.4c11,15.7,32.6,20.3,48.2,10.4l27.5-17.5c7.5-4.7,12.7-12.4,14.2-21.1 c1.3-7.3,0.2-14.8-3.3-21.3c2.4-3.6,4-7.6,4.7-11.8C99.2,32.1,97.1,22.9,91.8,15.6"/><path fill="var(--icon-fill, #FFFFFF)" fill-rule="evenodd" d="M40.9,103.9c-8.9,2.3-18.2-1.2-23.4-8.7c-3.2-4.4-4.4-9.9-3.5-15.3c0.2-0.9,0.4-1.7,0.6-2.6l0.5-1.6l1.4,1 c3.3,2.4,6.9,4.2,10.8,5.4l1,0.3l-0.1,1c-0.1,1.4,0.3,2.9,1.1,4.1c1.6,2.3,4.4,3.4,7.1,2.7c0.6-0.2,1.2-0.4,1.7-0.7L65.5,72 c1.4-0.9,2.3-2.2,2.6-3.8c0.3-1.6-0.1-3.3-1-4.6c-1.6-2.3-4.4-3.3-7.1-2.6c-0.6,0.2-1.2,0.4-1.7,0.7l-10.5,6.7 c-1.7,1.1-3.6,1.9-5.6,2.4c-8.9,2.3-18.2-1.2-23.4-8.7c-3.1-4.4-4.4-9.9-3.4-15.3c0.9-5.2,4.1-9.9,8.6-12.7l27.5-17.5 c1.7-1.1,3.6-1.9,5.6-2.5c8.9-2.3,18.2,1.2,23.4,8.7c3.2,4.4,4.4,9.9,3.5,15.3c-0.2,0.9-0.4,1.7-0.7,2.6l-0.5,1.6l-1.4-1 c-3.3-2.4-6.9-4.2-10.8-5.4l-1-0.3l0.1-1c0.1-1.4-0.3-2.9-1.1-4.1c-1.6-2.3-4.4-3.3-7.1-2.6c-0.6,0.2-1.2,0.4-1.7,0.7L32.4,46.1 c-1.4,0.9-2.3,2.2-2.6,3.8s0.1,3.3,1,4.6c1.6,2.3,4.4,3.3,7.1,2.6c0.6-0.2,1.2-0.4,1.7-0.7l10.5-6.7c1.7-1.1,3.6-1.9,5.6-2.5 c8.9-2.3,18.2,1.2,23.4,8.7c3.2,4.4,4.4,9.9,3.5,15.3c-0.9,5.2-4.1,9.9-8.6,12.7l-27.5,17.5C44.8,102.5,42.9,103.3,40.9,103.9"/></symbol>
  <symbol id="woocommerce-icon" viewBox="0 -51.5 256 256"><path fill="var(--icon-fill, #7F54B3)" fill-rule="evenodd" d="M232.137523,0 L23.7592719,0 C10.5720702,0 -0.103257595,10.7799647 0.000639559736,23.862498 L0.000639559736,103.404247 C0.000639559736,116.591115 10.6767385,127.266612 23.8639402,127.266612 L122.558181,127.266612 L167.667206,152.384995 L157.410382,127.266612 L232.137523,127.266612 C245.325059,127.266612 255.999888,116.591115 255.999888,103.404247 L255.999888,23.862498 C255.999888,10.6752964 245.325059,0 232.137523,0 Z M19.3640061,18.4201481 C16.4334946,18.6294847 14.2355942,19.6761007 12.7703719,21.6645976 C11.3051496,23.5484931 10.781875,25.9556632 11.095813,28.6768382 C17.2707741,67.9247058 23.027062,94.4034429 28.3647436,108.113986 C30.4579757,113.137395 32.8651458,115.5451 35.690989,115.335764 C40.086656,115.021425 45.3196694,108.951332 51.4946305,97.1248185 C54.73908,90.4260478 59.7628237,80.3792294 66.5657276,66.9823567 C72.2170797,86.762992 79.9618646,101.625221 89.6956814,111.567705 C92.417057,114.393415 95.2427665,115.649434 97.9634733,115.440098 C100.371178,115.230761 102.254539,113.974742 103.510558,111.672039 C104.557241,109.683676 104.975914,107.380974 104.766578,104.764601 C104.138568,95.2407893 105.080917,81.9489193 107.69729,64.8892584 C110.417997,47.3063898 113.767382,34.6424627 117.849111,27.1069476 C118.686458,25.5370569 119.000128,23.9670994 118.895794,22.0832708 C118.686458,19.6760338 117.639775,17.6875369 115.651411,16.1176463 C113.663048,14.5477557 111.46468,13.8151445 109.057643,14.0244142 C106.022597,14.2337508 103.719895,15.6989731 102.150205,18.6294847 C95.6614396,30.4560654 91.0560348,49.6088916 88.335328,76.1924977 C84.3579328,66.145211 81.0085475,54.3185634 78.3921746,40.3987506 C77.2411578,34.2238564 74.4154483,31.2933449 69.8100434,31.6073497 C66.670329,31.8166194 64.0538892,33.9098515 61.9606572,37.8869122 L39.0401069,81.5302462 C35.2723159,66.3544807 31.7138615,47.8296643 28.4694119,25.9556632 C27.7368007,20.5133802 24.7016209,18.0014749 19.3640061,18.4201481 Z M221.044022,25.9559976 C228.475136,27.5259551 234.022221,31.5030159 237.789611,38.0965832 C241.138996,43.7482697 242.81302,50.5511737 242.81302,58.7146317 C242.81302,69.4943957 240.092314,79.3325464 234.649562,88.3333508 C228.370134,98.7995112 220.206676,104.032257 210.054854,104.032257 C208.275828,104.032257 206.391799,103.82292 204.402767,103.404247 C196.972321,101.834557 191.425236,97.857831 187.657177,91.264063 C184.308461,85.5076413 182.633768,78.6002028 182.633768,70.5410787 C182.633768,59.7612478 185.355144,49.923164 190.797226,41.0270948 C197.181658,30.5610681 205.345116,25.3280548 215.392603,25.3280548 C217.171629,25.3280548 219.055659,25.5373913 221.044022,25.9559976 Z M216.648622,82.5769291 C220.521015,79.1232099 223.137388,73.9947979 224.602744,67.0873594 C225.021417,64.6802562 225.335087,62.0637496 225.335087,59.3425746 C225.335087,56.3074616 224.707078,53.0630121 223.451058,49.8184957 C221.881368,45.7367667 219.788002,43.5389332 217.275963,43.0155917 C213.508574,42.2829805 209.845518,44.3762126 206.391799,49.5045577 C203.566089,53.4816184 201.786394,57.6680157 200.844713,61.9590813 C200.321038,64.3663182 200.111701,66.9830255 200.111701,69.5993984 C200.111701,72.6344445 200.739711,75.8788272 201.99573,79.1232099 C203.566089,83.2049389 205.658786,85.4026386 208.170825,85.9263145 C210.787198,86.4493215 213.612908,85.2983047 216.648622,82.5769291 Z M172.167608,38.0965832 C168.399549,31.5030159 162.74813,27.5259551 155.422019,25.9559976 C153.432987,25.5373913 151.549626,25.3280548 149.769931,25.3280548 C139.723112,25.3280548 131.559654,30.5610681 125.175223,41.0270948 C119.732472,49.923164 117.011765,59.7612478 117.011765,70.5410787 C117.011765,78.6002028 118.686458,85.5076413 122.035174,91.264063 C125.803233,97.857831 131.350318,101.834557 138.780763,103.404247 C140.769126,103.82292 142.653156,104.032257 144.432851,104.032257 C154.584672,104.032257 162.74813,98.7995112 169.027559,88.3333508 C174.47031,79.3325464 177.191017,69.4943957 177.191017,58.7146317 C177.191017,50.5511737 175.516324,43.7482697 172.167608,38.0965832 Z M158.980072,67.0873594 C157.515384,73.9947979 154.898343,79.1232099 151.02595,82.5769291 C147.990904,85.2983047 145.165195,86.4493215 142.548822,85.9263145 C140.036783,85.4026386 137.943417,83.2049389 136.373727,79.1232099 C135.117707,75.8788272 134.489698,72.6344445 134.489698,69.5993984 C134.489698,66.9830255 134.699034,64.3663182 135.22271,61.9590813 C136.16439,57.6680157 137.943417,53.4816184 140.769126,49.5045577 C144.223514,44.3762126 147.88657,42.2829805 151.65396,43.0155917 C154.165999,43.5389332 156.259365,45.7367667 157.829055,49.8184957 C159.085074,53.0630121 159.713084,56.3074616 159.713084,59.3425746 C159.713084,62.0637496 159.503748,64.6802562 158.980072,67.0873594 Z"/></symbol>
  <symbol id="gear-icon" viewBox="0 0 512 512"><path fill="var(--icon-fill, currentColor)" fill-rule="evenodd" d="M495.9 166.6c3.2 8.7 .5 18.4-6.4 24.6l-43.3 39.4c1.1 8.3 1.7 16.8 1.7 25.4s-.6 17.1-1.7 25.4l43.3 39.4c6.9 6.2 9.6 15.9 6.4 24.6c-4.4 11.9-9.7 23.3-15.8 34.3l-4.7 8.1c-6.6 11-14 21.4-22.1 31.2c-5.9 7.2-15.7 9.6-24.5 6.8l-55.7-17.7c-13.4 10.3-28.2 18.9-44 25.4l-12.5 57.1c-2 9.1-9 16.3-18.2 17.8c-13.8 2.3-28 3.5-42.5 3.5s-28.7-1.2-42.5-3.5c-9.2-1.5-16.2-8.7-18.2-17.8l-12.5-57.1c-15.8-6.5-30.6-15.1-44-25.4L83.1 425.9c-8.8 2.8-18.6 .3-24.5-6.8c-8.1-9.8-15.5-20.2-22.1-31.2l-4.7-8.1c-6.1-11-11.4-22.4-15.8-34.3c-3.2-8.7-.5-18.4 6.4-24.6l43.3-39.4C64.6 273.1 64 264.6 64 256s.6-17.1 1.7-25.4L22.4 191.2c-6.9-6.2-9.6-15.9-6.4-24.6c4.4-11.9 9.7-23.3 15.8-34.3l4.7-8.1c6.6-11 14-21.4 22.1-31.2c5.9-7.2 15.7-9.6 24.5-6.8l55.7 17.7c13.4-10.3 28.2-18.9 44-25.4l12.5-57.1c2-9.1 9-16.3 18.2-17.8C227.3 1.2 241.5 0 256 0s28.7 1.2 42.5 3.5c9.2 1.5 16.2 8.7 18.2 17.8l12.5 57.1c15.8 6.5 30.6 15.1 44 25.4l55.7-17.7c8.8-2.8 18.6-.3 24.5 6.8c8.1 9.8 15.5 20.2 22.1 31.2l4.7 8.1c6.1 11 11.4 22.4 15.8 34.3zM256 336a80 80 0 1 0 0-160 80 80 0 1 0 0 160z"/></symbol>
  <symbol id="lock-icon" viewBox="0 0 448 512"><path fill="var(--icon-fill, currentColor)" fill-rule="evenodd" d="M144 144l0 48 160 0 0-48c0-44.2-35.8-80-80-80s-80 35.8-80 80zM80 192l0-48C80 64.5 144.5 0 224 0s144 64.5 144 144l0 48 16 0c35.3 0 64 28.7 64 64l0 192c0 35.3-28.7 64-64 64L64 512c-35.3 0-64-28.7-64-64L0 256c0-35.3 28.7-64 64-64l16 0z"/></symbol>
  <symbol id="expo-icon" viewBox="0 0 20 20"><path fill="var(--icon-fill, currentColor)" fill-rule="evenodd" d="M18.072 7.75a1.749 1.749 0 00-1.56-.732 1.763 1.763 0 00-1.436.946 1.55 1.55 0 00.302 1.75 2.57 2.57 0 001.716-.484 2.53 2.53 0 00.978-1.48zM12.866 1L11.751.394 6.897 3.072l.387.207.736.383 1.332-.733L12.867.987 12.866 1zm.449-.184a.173.173 0 01.124.115l1.626 4.755a.158.158 0 01-.077.207 3.126 3.126 0 00-1.384 1.519 3.09 3.09 0 00-.134 2.042 3.29 3.29 0 001.35 1.793 3.343 3.343 0 002.195.524.208.208 0 01.202.123l1.68 4.88a.196.196 0 01-.078.215l-5.163 2.992a.195.195 0 01-.078.015.208.208 0 01-.14-.022l-1.81-1.129a.18.18 0 01-.078-.076l-3.538-8.065-5.388 3.039a.25.25 0 01-.21.008l-1.224-.69a.177.177 0 01-.077-.23l5.234-9.847c.02-.033.05-.06.085-.076L11.65.023a.2.2 0 01.186 0l1.479.793zM6.843 3.46l-.256-.13-5.044 9.523.92.514 4.352-5.643a.212.212 0 01.178-.077.217.217 0 01.155.115l4.738 10.82 1.266.775L8.066 4.62l-.216-.614-1.014-.552.007.007zm7.804 5.679a1.932 1.932 0 01.092-1.28c.176-.404.484-.737.875-.945a2.152 2.152 0 012.509.307 1.934 1.934 0 01.056 2.745l-.056.056a2.118 2.118 0 01-1.986.516 2.118 2.118 0 01-.928-.508 2.091 2.091 0 01-.562-.891z"/></symbol>
  <symbol id="playstore-icon" viewBox="0 0 512 512"><path fill="var(--icon-fill, #34a853)" fill-rule="evenodd" d="M325.3 234.3L104.6 13l280.8 161.2-60.1 60.1zM47 0C34 6.8 25.3 19.2 25.3 35.3v441.3c0 16.1 8.7 28.5 21.7 35.3l256.6-256L47 0zm425.2 225.6l-58.9-34.1-65.7 64.5 65.7 64.5 60.1-34.1c18-14.3 18-46.5-1.2-60.8zM104.6 499l280.8-161.2-60.1-60.1L104.6 499z"/></symbol>
  <symbol id="appstore-icon" viewBox="0 0 448 512"><path fill="var(--icon-fill, #2196f3)" fill-rule="evenodd" d="M400 32H48C21.5 32 0 53.5 0 80v352c0 26.5 21.5 48 48 48h352c26.5 0 48-21.5 48-48V80c0-26.5-21.5-48-48-48zM127 384.5c-5.5 9.6-17.8 12.8-27.3 7.3-9.6-5.5-12.8-17.8-7.3-27.3l14.3-24.7c16.1-4.9 29.3-1.1 39.6 11.4L127 384.5zm138.9-53.9H84c-11 0-20-9-20-20s9-20 20-20h51l65.4-113.2-20.5-35.4c-5.5-9.6-2.2-21.8 7.3-27.3 9.6-5.5 21.8-2.2 27.3 7.3l8.9 15.4 8.9-15.4c5.5-9.6 17.8-12.8 27.3-7.3 9.6 5.5 12.8 17.8 7.3 27.3l-85.8 148.6h62.1c20.2 0 31.5 23.7 22.7 40zm98.1 0h-29l19.6 33.9c5.5 9.6 2.2 21.8-7.3 27.3-9.6 5.5-21.8 2.2-27.3-7.3-32.9-56.9-57.5-99.7-74-128.1-16.7-29-4.8-58 7.1-67.8 13.1 22.7 32.7 56.7 58.9 102h52c11 0 20 9 20 20 0 11.1-9 20-20 20z"/></symbol>
  <symbol id="calendar-icon" viewBox="0 0 448 512"><path fill="var(--icon-fill, currentColor)" fill-rule="evenodd" d="M128 0c17.7 0 32 14.3 32 32l0 32 128 0 0-32c0-17.7 14.3-32 32-32s32 14.3 32 32l0 32 48 0c26.5 0 48 21.5 48 48l0 48L0 160l0-48C0 85.5 21.5 64 48 64l48 0 0-32c0-17.7 14.3-32 32-32zM0 192l448 0 0 272c0 26.5-21.5 48-48 48L48 512c-26.5 0-48-21.5-48-48L0 192zm64 80l0 32c0 8.8 7.2 16 16 16l32 0c8.8 0 16-7.2 16-16l0-32c0-8.8-7.2-16-16-16l-32 0c-8.8 0-16 7.2-16 16zm128 0l0 32c0 8.8 7.2 16 16 16l32 0c8.8 0 16-7.2 16-16l0-32c0-8.8-7.2-16-16-16l-32 0c-8.8 0-16 7.2-16 16zm144-16c-8.8 0-16 7.2-16 16l0 32c0 8.8 7.2 16 16 16l32 0c8.8 0 16-7.2 16-16l0-32c0-8.8-7.2-16-16-16l-32 0zM64 400l0 32c0 8.8 7.2 16 16 16l32 0c8.8 0 16-7.2 16-16l0-32c0-8.8-7.2-16-16-16l-32 0c-8.8 0-16 7.2-16 16zm144-16c-8.8 0-16 7.2-16 16l0 32c0 8.8 7.2 16 16 16l32 0c8.8 0 16-7.2 16-16l0-32c0-8.8-7.2-16-16-16l-32 0zm112 16l0 32c0 8.8 7.2 16 16 16l32 0c8.8 0 16-7.2 16-16l0-32c0-8.8-7.2-16-16-16l-32 0c-8.8 0-16 7.2-16 16z"/></symbol>
  <symbol id="skill-icon" viewBox="0 0 512 512"><path fill="var(--icon-fill, currentColor)" fill-rule="evenodd" d="M423.51 61.53c-5.02,-5.03 -10.92,-7.51 -17.75,-7.51 -6.82,0 -12.8,2.48 -17.75,7.51l-27.05 26.97c-7.25,-4.7 -14.93,-8.8 -22.95,-12.47 -8.02,-3.67 -16.22,-6.82 -24.5,-9.55l0 -41.48c0,-7 -2.38,-12.89 -7.25,-17.75 -4.86,-4.86 -10.75,-7.25 -17.75,-7.25l-52.05 0c-6.66,0 -12.45,2.39 -17.49,7.25 -4.95,4.86 -7.43,10.75 -7.43,17.75l0 37.98c-8.7,2.04 -17.15,4.6 -25.26,7.76 -8.19,3.16 -15.95,6.74 -23.29,10.75l-29.96 -29.53c-4.69,-4.94 -10.4,-7.5 -17.32,-7.5 -6.83,0 -12.71,2.56 -17.75,7.5l-36.43 36.54c-5.03,5.03 -7.51,10.92 -7.51,17.73 0,6.83 2.48,12.81 7.51,17.75l26.97 27.06c-4.7,7.26 -8.79,14.93 -12.46,22.95 -3.68,8.02 -6.83,16.22 -9.56,24.49l-41.47 0c-7.01,0 -12.9,2.39 -17.76,7.26 -4.86,4.86 -7.25,10.75 -7.25,17.75l0 52.05c0,6.65 2.39,12.46 7.25,17.5 4.86,4.94 10.75,7.42 17.76,7.42l37.97 0c2.04,8.7 4.6,17.15 7.76,25.25 3.17,8.2 6.75,16.13 10.75,23.81l-29.52 29.44c-4.95,4.7 -7.51,10.41 -7.51,17.33 0,6.82 2.56,12.71 7.51,17.75l36.53 36.95c5.03,4.69 10.92,7 17.75,7 6.82,0 12.79,-2.31 17.75,-7l27.04 -27.48c7.26,4.69 14.94,8.78 22.96,12.46 8.02,3.66 16.21,6.83 24.49,9.55l0 41.48c0,7 2.39,12.88 7.25,17.74 4.86,4.87 10.76,7.26 17.75,7.26l52.05 0c6.66,0 12.46,-2.39 17.5,-7.26 4.94,-4.86 7.42,-10.74 7.42,-17.74l0 -37.98c8.7,-2.04 17.15,-4.6 25.25,-7.76 8.2,-3.16 16.14,-6.74 23.81,-10.75l29.44 29.53c4.7,4.95 10.49,7.5 17.51,7.5 7.07,0 12.87,-2.55 17.57,-7.5l36.95 -36.53c4.69,-5.04 7,-10.92 7,-17.75 0,-6.82 -2.31,-12.8 -7,-17.75l-27.48 -27.05c4.7,-7.26 8.79,-14.93 12.46,-22.96 3.66,-8.01 6.83,-16.21 9.56,-24.49l41.47 0c7,0 12.88,-2.4 17.74,-7.25 4.87,-4.87 7.26,-10.75 7.26,-17.75l0 -52.05c0,-6.66 -2.39,-12.45 -7.26,-17.5 -4.86,-4.95 -10.74,-7.42 -17.74,-7.42l-37.98 0c-2.04,-8.36 -4.6,-16.73 -7.76,-25 -3.16,-8.37 -6.74,-16.21 -10.75,-23.56l29.53 -29.95c4.95,-4.69 7.5,-10.41 7.5,-17.32 0,-6.83 -2.55,-12.71 -7.5,-17.75l-36.53 -36.43zm-48.41 257.98c-22.72,42.52 -67.54,71.44 -119.1,71.44 -51.58,0 -96.37,-28.92 -119.09,-71.42 2.66,-11.61 7.05,-21.74 19.9,-28.84 17.76,-9.89 48.34,-9.15 62.89,-22.24l20.1 52.78 10.1 -28.77 -4.95 -5.42c-3.72,-5.44 -2.44,-11.62 4.46,-12.74 2.33,-0.37 4.95,-0.14 7.47,-0.14 2.69,0 5.68,-0.25 8.22,0.32 6.41,1.41 7.07,7.62 3.88,12.56l-4.95 5.42 10.11 28.77 18.18 -52.78c13.12,11.8 48.43,14.18 62.88,22.24 12.89,7.22 17.26,17.24 19.9,28.82zm-159.11 -86.45c-1.82,0.03 -3.31,-0.2 -4.93,-1.1 -2.15,-1.19 -3.67,-3.24 -4.7,-5.55 -2.17,-4.86 -3.89,-17.63 1.57,-21.29l-1.02 -0.66 -0.11 -1.41c-0.21,-2.57 -0.26,-5.68 -0.32,-8.95 -0.2,-12 -0.45,-26.56 -10.37,-29.47l-4.25 -1.26 2.81 -3.38c8.01,-9.64 16.38,-18.07 24.82,-24.54 9.55,-7.33 19.26,-12.2 28.75,-13.61 9.77,-1.44 19.23,0.75 27.97,7.62 2.57,2.03 5.08,4.48 7.5,7.33 9.31,0.88 16.94,5.77 22.38,12.75 3.24,4.16 5.71,9.09 7.29,14.33 1.56,5.22 2.24,10.77 1.95,16.23 -0.53,9.8 -4.2,19.35 -11.61,26.33 1.3,0.04 2.53,0.33 3.61,0.91 4.14,2.15 4.27,6.82 3.19,10.75 -1.08,3.28 -2.44,7.08 -3.73,10.28 -1.56,4.31 -3.85,5.12 -8.27,4.65 -9.93,43.45 -69.98,44.93 -82.53,0.04zm40.01 -135.69c87.64,0 158.63,71.04 158.63,158.63 0,87.64 -71.04,158.63 -158.63,158.63 -87.63,0 -158.63,-71.04 -158.63,-158.63 0,-87.64 71.04,-158.63 158.63,-158.63z"/></symbol>
  <symbol id="coursera-icon" viewBox="0 0 24 24"><path fill="var(--icon-fill, #0056D2)" fill-rule="evenodd" d="M11.374 23.977c-4.183-.21-8.006-2.626-9.959-6.347-2.097-3.858-1.871-8.864.732-12.454C4.748 1.338 9.497-.698 14.281.23c4.583.857 8.351 4.494 9.358 8.911 1.122 4.344-.423 9.173-3.925 12.04-2.289 1.953-5.295 2.956-8.34 2.797zm7.705-8.05a588.737 588.737 0 0 0-3.171-1.887c-.903 1.483-2.885 2.248-4.57 1.665-2.024-.639-3.394-2.987-2.488-5.134.801-2.009 2.79-2.707 4.357-2.464a4.19 4.19 0 0 1 2.623 1.669c1.077-.631 2.128-1.218 3.173-1.855-2.03-3.118-6.151-4.294-9.656-2.754-3.13 1.423-4.89 4.68-4.388 7.919.54 3.598 3.73 6.486 7.716 6.404a7.664 7.664 0 0 0 6.404-3.563z"/></symbol>
  <symbol id="meta-icon" viewBox="0 0 640 512"><path fill="var(--icon-fill, #0081FB)" fill-rule="evenodd" d="M640 317.9C640 409.2 600.6 466.4 529.7 466.4C467.1 466.4 433.9 431.8 372.8 329.8L341.4 277.2C333.1 264.7 326.9 253 320.2 242.2C300.1 276 273.1 325.2 273.1 325.2C206.1 441.8 168.5 466.4 116.2 466.4C43.4 466.4 0 409.1 0 320.5C0 177.5 79.8 42.4 183.9 42.4C234.1 42.4 277.7 67.1 328.7 131.9C365.8 81.8 406.8 42.4 459.3 42.4C558.4 42.4 640 168.1 640 317.9H640zM287.4 192.2C244.5 130.1 216.5 111.7 183 111.7C121.1 111.7 69.2 217.8 69.2 321.7C69.2 370.2 87.7 397.4 118.8 397.4C149 397.4 167.8 378.4 222 293.6C222 293.6 246.7 254.5 287.4 192.2V192.2zM531.2 397.4C563.4 397.4 578.1 369.9 578.1 322.5C578.1 198.3 523.8 97.1 454.9 97.1C421.7 97.1 393.8 123 360 175.1C369.4 188.9 379.1 204.1 389.3 220.5L426.8 282.9C485.5 377 500.3 397.4 531.2 397.4L531.2 397.4z"/></symbol>
  <symbol id="ucdavis-icon" viewBox="0 0 192.756 192.756"><path fill="var(--icon-fill, #164c82)" fill-rule="evenodd" d="M162.459 108.348l2.865-7.471.498.498c1.742 1.369 3.984 2.615 6.227 2.615 1.992.123 2.988-.498 2.74-2.117-.25-1.246-1.621-1.494-2.492-1.619l-1.992-.373c-3.736-.748-6.85-3.113-6.85-7.472 0-6.6 5.729-10.336 11.457-10.336 2.988 0 5.854.747 8.344 2.366l-2.365 6.6c-1.371-.872-3.363-2.241-5.979-2.366-.871 0-2.74.374-2.117 2.366.25.872 1.494 1.246 2.117 1.37l2.242.498c4.109.996 7.098 3.238 7.098 8.095 0 6.6-5.854 9.961-11.582 9.961-3.361 0-7.223-.996-10.211-2.615zM150.754 110.465V82.446h9.713v28.019h-9.713zM139.67 82.446h10.088l-10.211 28.019h-8.219l-10.213-28.019h9.963l3.611 12.826c.373 1.37.623 2.739.623 4.11h.248c0-1.371.25-2.74.623-4.11l3.487-12.826zM106.422 82.446h10.709l9.59 28.019h-10.213l-.996-3.486h-7.223l-.746 3.486H97.332l9.09-28.019zm3.611 17.933h3.859c-.654-3.281-1.336-6.558-1.992-9.838l-1.867 9.838zM72.301 110.465h12.204c7.846 0 13.449-5.23 13.449-13.574 0-10.335-6.848-14.444-15.814-14.444h-9.838v28.018h-.001zM81.89 90.79h.623c3.611 0 5.729 2.117 5.729 6.101 0 3.611-2.366 5.605-5.604 5.605h-.748V90.79zM66.324 83.318l.623 4.607c.125 1.121.747 3.736-.125 3.362-.374-.125-.872-1.37-1.246-2.366-.125-.623-1.121-3.113-1.37-3.363-1.245-.871-4.234-1.867-6.227-1.867-6.227 0-10.336 4.482-10.336 12.578 0 5.852 2.74 12.826 9.838 12.826 2.615 0 7.472-.873 8.717-4.482.623-1.619 1.121-2.99 1.495-2.615.374.373 0 1.617-.249 2.365-.748 3.361-.872 4.359-1.121 4.482-3.113 1.619-7.223 2.117-10.834 2.117-11.457 0-15.317-6.6-15.317-13.324 0-11.457 7.098-16.313 18.057-15.815 2.74.001 5.479.499 8.095 1.495zM32.701 83.816l-1.868-.623c-.622-.498.125-.623.125-.623s2.739.498 9.215-.125c0 0 .623.125.249.623l-2.117.872c-1.495.623-1.495.25-1.495 1.868v14.195c0 11.209-11.332 10.959-13.573 10.959-.996 0-11.333 0-11.333-8.965V86.929c0-2.739.25-2.615-.623-2.864l-2.615-.996s-.498-.747.25-.623c2.241.125 5.354.498 12.577 0 0 0 .623.125.25.623l-2.118.623c-1.743.747-1.494.124-1.494 1.867v14.943c0 3.611 1.868 8.221 7.721 8.221 8.094 0 8.219-6.975 8.219-8.594V85.435c0-1.37-.125-.997-1.37-1.619z"/></symbol>
  <symbol id="vite-icon" viewBox="0 0 256 257"><path fill="var(--icon-fill, #BD34FE)" fill-rule="evenodd" d="M255.153 37.938L134.897 252.976c-2.483 4.44-8.862 4.466-11.382.048L.875 37.958c-2.746-4.814 1.371-10.646 6.827-9.67l120.385 21.517a6.537 6.537 0 0 0 2.322-.004l117.867-21.483c5.438-.991 9.574 4.796 6.877 9.62Z"/><path fill="var(--icon-fill, #FFDD35)" fill-rule="evenodd" d="M185.432.063L96.44 17.501a3.268 3.268 0 0 0-2.634 3.014l-5.474 92.456a3.268 3.268 0 0 0 3.997 3.378l24.777-5.718c2.318-.535 4.413 1.507 3.936 3.838l-7.361 36.047c-.495 2.426 1.782 4.5 4.151 3.78l15.304-4.649c2.372-.72 4.652 1.36 4.15 3.788l-11.698 56.621c-.732 3.542 3.979 5.473 5.943 2.437l1.313-2.028l72.516-144.72c1.215-2.423-.88-5.186-3.54-4.672l-25.505 4.922c-2.396.462-4.435-1.77-3.759-4.114l16.646-57.705c.677-2.35-1.37-4.583-3.769-4.113Z"/></symbol>
  <symbol id="bootstrap-icon" viewBox="0 0 118 94"><path fill="var(--icon-fill, #712cf9)" fill-rule="evenodd" d="M24.509 0c-6.733 0-11.715 5.893-11.492 12.284.214 6.14-.064 14.092-2.066 20.577C8.943 39.365 5.547 43.485 0 44.014v5.972c5.547.529 8.943 4.649 10.951 11.153 2.002 6.485 2.28 14.437 2.066 20.577C12.794 88.106 17.776 94 24.51 94H93.5c6.733 0 11.714-5.893 11.491-12.284-.214-6.14.064-14.092 2.066-20.577 2.009-6.504 5.396-10.624 10.943-11.153v-5.972c-5.547-.529-8.934-4.649-10.943-11.153-2.002-6.484-2.28-14.437-2.066-20.577C105.214 5.894 100.233 0 93.5 0H24.508zM80 57.863C80 66.663 73.436 72 62.543 72H44a2 2 0 01-2-2V24a2 2 0 012-2h18.437c9.083 0 15.044 4.92 15.044 12.474 0 5.302-4.01 10.049-9.119 10.88v.277C75.317 46.394 80 51.21 80 57.863zM60.521 28.34H49.948v14.934h8.905c6.884 0 10.68-2.772 10.68-7.727 0-4.643-3.264-7.207-9.012-7.207zM49.948 49.2v16.458H60.91c7.167 0 10.964-2.876 10.964-8.281 0-5.406-3.903-8.178-11.425-8.178H49.948z"/></symbol>
  <symbol id="wix-icon" viewBox="0 0 640 512"><path fill="var(--icon-fill, #0C6EFC)" fill-rule="evenodd" d="M393.4 131.7c0 13 2.1 32.7-28.7 43.8-9.5 3.5-16 9.7-16 9.7 0-31 4.7-42.2 17.4-48.9 9.8-5.1 27.2-4.6 27.2-4.6zm-115.8 35.5l-34.2 132.7-28.5-108.6c-7.7-32-20.8-48.5-48.4-48.5-27.4 0-40.7 16.2-48.4 48.5L89.5 299.9 55.3 167.2C49.7 140.5 23.9 129 0 132l65.6 247.9s21.6 1.6 32.5-4c14.2-7.3 21-12.8 29.6-46.6 7.7-30.1 29.1-118.4 31.1-124.7 4.8-14.9 11.1-13.8 15.4 0 2 6.3 23.5 94.6 31.1 124.7 8.6 33.7 15.4 39.3 29.6 46.6 10.8 5.5 32.5 4 32.5 4l65.6-247.9c-24.4-3.1-49.8 8.9-55.3 35.3zm115.8 5.2s-4.1 6.3-13.5 11.6c-6 3.4-11.8 5.6-18 8.6-15.1 7.3-13.2 14-13.2 35.2v152.1s16.6 2.1 27.4-3.4c13.9-7.1 17.1-14 17.3-44.8V181.4l0 0v-9zm163.4 84.1L640 132.8s-35.1-6-52.5 9.9c-13.3 12.1-24.4 29.6-54.2 72.5-.5 .7-6.3 10.5-13.1 0-29.3-42.2-40.8-60.3-54.2-72.5-17.4-15.8-52.5-9.9-52.5-9.9l83.2 123.7-83 123.4s36.6 4.6 54-11.2c11.5-10.5 17.6-20.4 52.5-70.7 6.8-10.5 12.6-.8 13.1 0 29.4 42.4 39.2 58.1 53.1 70.7 17.4 15.8 53.3 11.2 53.3 11.2L556.8 256.5z"/></symbol>
  <symbol id="jquery-icon" viewBox="-1.19275382 .5 25.19275382 24.582"><path fill="var(--icon-fill, #0769AD)" fill-rule="evenodd" d="m1.406 16.346c.023.052.049.1.077.148.013.028.031.057.047.083.026.052.054.102.081.152l.157.264c.029.049.057.097.09.145.055.094.12.186.177.28.026.039.05.078.079.117.11.171.21.313.317.451.076.103.152.204.234.305.027.038.057.076.085.114l.221.268c.027.031.054.067.083.099.098.118.202.232.306.348 0 .002.003.004.005.007.129.162.268.306.42.434l.004.004c.08.082.16.163.245.243l.101.097c.111.104.222.207.339.307.002 0 .003.002.005.003l.057.05c.102.089.205.177.31.259l.125.105c.085.068.173.132.26.199l.136.104c.093.07.192.138.287.206.035.025.07.05.106.073l.029.023.281.184.12.08c.147.094.293.182.439.27.042.021.084.044.123.068.108.062.22.125.329.182.06.034.122.063.184.094.075.042.153.083.233.125.022.007.04.014.058.024l.004-.004c.033.015.064.031.096.047.12.06.245.117.375.173.024.01.05.02.076.034.144.063.288.123.437.181.034.01.07.027.105.04.135.051.274.103.412.152l.05.018c.153.052.304.102.46.149.036.01.073.023.111.033.159.048.313.105.474.135 10.273 1.863 13.258-6.146 13.258-6.146-2.508 3.25-6.959 4.107-11.174 3.153-.156-.036-.312-.086-.47-.132a11.753 11.753 0 0 1 -.663-.209l.095.029-.062-.024c-.136-.046-.267-.097-.4-.148a1.53 1.53 0 0 0 -.099-.038l-.011-.003c-.147-.059-.29-.119-.432-.182-.031-.01-.057-.024-.088-.036a13.656 13.656 0 0 1 -.5-.23l.138.061a1.483 1.483 0 0 1 -.106-.052c-.094-.044-.188-.094-.28-.141a3.784 3.784 0 0 1 -.207-.106l.02.01c-.113-.06-.226-.125-.34-.186-.034-.024-.073-.044-.112-.066a14.058 14.058 0 0 1 -.502-.306l.063.038a2.042 2.042 0 0 1 -.124-.083l.006.004a6.039 6.039 0 0 1 -.316-.208c-.034-.022-.065-.046-.1-.07a8.47 8.47 0 0 1 -.318-.228l.024.017c-.042-.034-.087-.066-.132-.099-.088-.069-.177-.135-.265-.207l-.118-.094a10.16 10.16 0 0 1 -.37-.309l-.001-.001-.347-.315-.1-.094c-.082-.083-.166-.162-.25-.244l-.097-.1a9.008 9.008 0 0 1 -.303-.315l-.006-.007-.017-.014a17.877 17.877 0 0 1 -.313-.353c-.027-.031-.052-.064-.08-.097l-.227-.275a13.75 13.75 0 0 1 -.3-.391l-.04-.056c-2.338-3.176-3.184-7.559-1.313-11.155l-1.652 2.089c-2.125 3.039-1.862 6.991-.237 10.218.037.079.078.153.118.228z"/><path fill="var(--icon-fill, #0769AD)" fill-rule="evenodd" d="m8.563 11.968-.011-.016-.009-.012z"/><path fill="var(--icon-fill, #0769AD)" fill-rule="evenodd" d="m9.681 13.28.09.09c.114.11.231.217.35.324l.015.013c.12.106.255.217.394.325l.021.016c.034.023.063.05.096.073.14.108.281.211.428.314l.015.009c.062.045.128.086.198.13.028.018.06.042.09.06.106.068.21.131.317.196.017.007.032.016.048.023.09.055.188.108.282.156.033.02.065.035.099.054.067.033.133.068.197.102l.032.014c.135.066.273.128.408.189.034.013.063.024.092.038.111.048.224.094.335.136.05.017.097.037.144.052.102.038.209.073.31.108l.14.045c.146.045.294.104.449.128 7.933 1.306 9.769-4.771 9.769-4.771-1.653 2.367-4.852 3.495-8.261 2.614a8.215 8.215 0 0 1 -.506-.145l.057.016c-.048-.013-.09-.028-.136-.042-.104-.036-.211-.071-.312-.108l-.144-.054c-.112-.045-.226-.087-.335-.135-.034-.015-.065-.025-.091-.04-.14-.063-.281-.125-.418-.191l-.206-.107-.119-.06c-.092-.048-.177-.098-.265-.149a.558.558 0 0 1 -.065-.036l.003.001c-.106-.066-.216-.13-.318-.197-.034-.019-.065-.042-.097-.062l-.208-.135c-.144-.1-.285-.207-.428-.311-.032-.029-.063-.053-.094-.079-1.499-1.173-2.681-2.776-3.242-4.591-.591-1.887-.461-4.003.56-5.72l-1.255 1.768c-1.541 2.201-1.454 5.143-.254 7.471.219.43.441.793.686 1.139.228.326.48.708.784.97.108.123.224.24.345.359z"/><path fill="var(--icon-fill, #0769AD)" fill-rule="evenodd" d="m2.436 17.992-.004-.006-.007-.009zm4.158-.744.01.007.002.003z"/><path fill="var(--icon-fill, #0769AD)" fill-rule="evenodd" d="m13.666 1.427c-.909 1.327-.996 2.975-.37 4.438.665 1.554 2.024 2.774 3.608 3.352.065.025.128.046.195.07l.088.027c.092.029.185.063.28.084 4.381.841 5.567-2.238 5.886-2.691-1.043 1.49-2.792 1.848-4.938 1.329a4.753 4.753 0 0 1 -.55-.17l.033.011a6.196 6.196 0 0 1 -.656-.27l.038.017c-.41-.2-.762-.416-1.089-.664-1.918-1.45-3.104-4.211-1.852-6.46z"/></symbol>
  <symbol id="google-icon" viewBox="-3 0 262 262"><path fill="var(--icon-fill, #4285F4)" fill-rule="evenodd" d="M255.878 133.451c0-10.734-.871-18.567-2.756-26.69H130.55v48.448h71.947c-1.45 12.04-9.283 30.172-26.69 42.356l-.244 1.622 38.755 30.023 2.685.268c24.659-22.774 38.875-56.282 38.875-96.027"/><path fill="var(--icon-fill, #34A853)" fill-rule="evenodd" d="M130.55 261.1c35.248 0 64.839-11.605 86.453-31.622l-41.196-31.913c-11.024 7.688-25.82 13.055-45.257 13.055-34.523 0-63.824-22.773-74.269-54.25l-1.531.13-40.298 31.187-.527 1.465C35.393 231.798 79.49 261.1 130.55 261.1"/><path fill="var(--icon-fill, #FBBC05)" fill-rule="evenodd" d="M56.281 156.37c-2.756-8.123-4.351-16.827-4.351-25.82 0-8.994 1.595-17.697 4.206-25.82l-.073-1.73L15.26 71.312l-1.335.635C5.077 89.644 0 109.517 0 130.55s5.077 40.905 13.925 58.602l42.356-32.782"/><path fill="var(--icon-fill, #EB4335)" fill-rule="evenodd" d="M130.55 50.479c24.514 0 41.05 10.589 50.479 19.438l36.844-35.974C195.245 12.91 165.798 0 130.55 0 79.49 0 35.393 29.301 13.925 71.947l42.211 32.783c10.59-31.477 39.891-54.251 74.414-54.251"/></symbol>
  <symbol id="ibm-icon" viewBox="0 0 1000 400"><path fill="var(--icon-fill, #1f70c1)" fill-rule="evenodd" d="M 0,0 0,27.367 194.64844,27.367 194.64844,0 0,0 z M 222.22657,0 222.22657,27.367 499.60937,27.367 C 499.60936,27.367 471.27625,0 433.75,0 L 222.22657,0 z M 554.02344,0 554.02344,27.367 721.83594,27.367 711.875,0 554.02344,0 z M 842.14844,0 832.1875,27.367 998.47656,27.367 998.47656,0 842.14844,0 z M 0,53.22221 0,80.589202 194.64844,80.589202 194.64844,53.22221 0,53.22221 z M 222.22657,53.260975 222.22657,80.589202 531.79688,80.589202 C 531.79688,80.589214 528.18125,59.526386 521.875,53.260975 L 222.22657,53.260975 z M 554.02344,53.260975 554.02344,80.589202 740.23438,80.589202 731.01562,53.260975 554.02344,53.260975 z M 822.22656,53.260975 813.00781,80.589202 998.47656,80.589202 998.47656,53.260975 822.22656,53.260975 z M 55.937496,106.44442 55.937496,133.85017 140.23437,133.85017 140.23437,106.44442 55.937496,106.44442 z M 278.16407,106.44442 278.16407,133.85017 362.46093,133.85017 362.46093,106.44442 278.16407,106.44442 z M 444.45313,106.44442 444.45313,133.85017 528.75,133.85017 C 528.75001,133.85017 534.10156,119.37715 534.10156,106.44442 L 444.45313,106.44442 z M 609.96094,106.44442 609.96094,133.85017 759.41407,133.85017 749.45313,106.44442 609.96094,106.44442 z M 803.86719,106.44442 793.86719,133.85017 944.0625,133.85017 944.0625,106.44442 803.86719,106.44442 z M 55.937496,159.7054 55.937496,187.07238 140.23437,187.07238 140.23437,159.7054 55.937496,159.7054 z M 278.16407,159.7054 278.16407,187.07238 493.47657,187.07238 C 493.47658,187.07237 511.48781,173.0301 517.22656,159.7054 L 278.16407,159.7054 z M 609.96094,159.7054 609.96094,187.07238 694.25781,187.07238 694.25781,171.83835 699.60937,187.07238 854.02344,187.07238 859.76563,171.83835 859.76563,187.07238 944.0625,187.07238 944.0625,159.7054 785.82031,159.7054 777.42187,182.88593 768.98438,159.7054 609.96094,159.7054 z M 55.937496,212.92761 55.937496,240.29459 140.23437,240.29459 140.23437,212.92761 55.937496,212.92761 z M 278.16407,212.92761 278.16407,240.29459 517.22656,240.29459 C 511.48657,227.01331 493.47657,212.92761 493.47657,212.92761 L 278.16407,212.92761 z M 609.96094,212.92761 609.96094,240.29459 694.25781,240.29459 694.25781,212.92761 609.96094,212.92761 z M 709.57031,212.92761 719.76563,240.29459 835.54688,240.29459 845.23438,212.92761 709.57031,212.92761 z M 859.76563,212.92761 859.76563,240.29459 944.0625,240.29459 944.0625,212.92761 859.76563,212.92761 z M 55.937496,266.14982 55.937496,293.5168 140.23437,293.5168 140.23437,266.14982 55.937496,266.14982 z M 278.16407,266.14982 278.16407,293.5168 362.46093,293.5168 362.46093,266.14982 278.16407,266.14982 z M 444.45313,266.14982 444.45313,293.5168 534.10156,293.5168 C 534.10158,280.60147 528.75,266.14982 528.75,266.14982 L 444.45313,266.14982 z M 609.96094,266.14982 609.96094,293.5168 694.25781,293.5168 694.25781,266.14982 609.96094,266.14982 z M 728.71093,266.14982 738.59375,293.5168 816.21093,293.5168 826.17187,266.14982 728.71093,266.14982 z M 859.76563,266.14982 859.76563,293.5168 944.0625,293.5168 944.0625,266.14982 859.76563,266.14982 z M 1.52343,319.37203 1.52343,346.77778 196.17187,346.77778 196.17187,319.37203 1.52343,319.37203 z M 222.22657,319.37203 222.22657,346.77778 521.875,346.77778 C 528.18125,340.50245 531.79688,319.37203 531.79688,319.37203 L 222.22657,319.37203 z M 555.54687,319.37203 555.54687,346.77778 694.25781,346.77778 694.25781,319.37203 555.54687,319.37203 z M 747.89062,319.37203 758.04687,346.77778 797.53906,346.77778 807.07031,319.37203 747.89062,319.37203 z M 859.76563,319.37203 859.76563,346.77778 1000,346.77778 1000,319.37203 859.76563,319.37203 z M 1.52343,372.633 1.52343,400 196.17187,400 196.17187,372.633 1.52343,372.633 z M 222.22657,372.633 222.22657,399.96124 433.75,399.96124 C 471.27624,399.96122 499.60937,372.633 499.60937,372.633 L 222.22657,372.633 z M 555.54687,372.633 555.54687,400 694.25781,400 694.25781,372.633 555.54687,372.633 z M 767.14844,372.633 776.91407,399.92246 778.59375,399.96124 788.51563,372.633 767.14844,372.633 z M 859.76563,372.633 859.76563,400 1000,400 1000,372.633 859.76563,372.633 z"/></symbol>
  <symbol id="expressjs-icon" viewBox="0 0 50 50"><path fill="var(--icon-fill, #333333)" fill-rule="evenodd" d="M49.729 11h-.85c-1.051 0-2.041.49-2.68 1.324l-8.7 11.377-8.7-11.377C28.162 11.49 27.171 11 26.121 11h-.85l10.971 14.346L25.036 40h.85c1.051 0 2.041-.49 2.679-1.324L37.5 26.992l8.935 11.684C47.073 39.51 48.063 40 49.114 40h.85L38.758 25.346 49.729 11zM21.289 34.242c-2.554 3.881-7.582 5.87-12.389 4.116C4.671 36.815 2 32.611 2 28.109L2 27h12v0h11l0-4.134c0-6.505-4.818-12.2-11.295-12.809C6.273 9.358 0 15.21 0 22.5l0 5.573c0 5.371 3.215 10.364 8.269 12.183 6.603 2.376 13.548-1.17 15.896-7.256 0 0 0 0 0 0h-.638C22.616 33 21.789 33.481 21.289 34.242zM2 22.5C2 16.71 6.71 12 12.5 12S23 16.71 23 22.5V25H2V22.5z"/></symbol>
  <symbol id="docker-icon" viewBox="0 0 756.26 596.9"><path fill="var(--icon-fill, #1d63ed)" fill-rule="evenodd" d="M743.96,245.25c-18.54-12.48-67.26-17.81-102.68-8.27-1.91-35.28-20.1-65.01-53.38-90.95l-12.32-8.27-8.21,12.4c-16.14,24.5-22.94,57.14-20.53,86.81,1.9,18.28,8.26,38.83,20.53,53.74-46.1,26.74-88.59,20.67-276.77,20.67H.06c-.85,42.49,5.98,124.23,57.96,190.77,5.74,7.35,12.04,14.46,18.87,21.31,42.26,42.32,106.11,73.35,201.59,73.44,145.66.13,270.46-78.6,346.37-268.97,24.98.41,90.92,4.48,123.19-57.88.79-1.05,8.21-16.54,8.21-16.54l-12.3-8.27ZM189.67,206.39h-81.7v81.7h81.7v-81.7ZM295.22,206.39h-81.7v81.7h81.7v-81.7ZM400.77,206.39h-81.7v81.7h81.7v-81.7ZM506.32,206.39h-81.7v81.7h81.7v-81.7ZM84.12,206.39H2.42v81.7h81.7v-81.7ZM189.67,103.2h-81.7v81.7h81.7v-81.7ZM295.22,103.2h-81.7v81.7h81.7v-81.7ZM400.77,103.2h-81.7v81.7h81.7v-81.7ZM400.77,0h-81.7v81.7h81.7V0Z"/></symbol>
  <symbol id="node-icon" viewBox="0 0 256 289"><path fill="var(--icon-fill, #539e43)" fill-rule="evenodd" d="m127.999999 288.463771c-3.975155 0-7.6853-1.060043-11.130435-2.915115l-35.2463756-20.935818c-5.3002084-2.915114-2.650103-3.975156-1.0600426-4.505177 7.1552801-2.385091 8.4803317-2.915114 15.900623-7.15528.7950291-.53002 1.8550717-.265009 2.650103.265011l27.0310552 16.165632c1.060043.530021 2.385094.530021 3.180126 0l105.739129-61.21739c1.060043-.530023 1.590063-1.590063 1.590063-2.915115v-122.1697723c0-1.3250538-.53002-2.3850941-1.590063-2.9151143l-105.739129-60.9523818c-1.060043-.5300201-2.385094-.5300201-3.180126 0l-105.7391316 60.9523818c-1.0600403.5300202-1.5900605 1.8550717-1.5900605 2.9151143v122.1697723c0 1.060041.5300202 2.385092 1.5900605 2.915115l28.8861293 16.695652c15.6356117 7.950309 25.4409949-1.325052 25.4409949-10.600415v-120.579712c0-1.5900605 1.3250515-3.1801232 3.1801232-3.1801232h13.5155288c1.5900627 0 3.1801232 1.3250515 3.1801232 3.1801232v120.579712c0 20.935818-11.3954436 33.126293-31.2712211 33.126293-6.0952375 0-10.8654235 0-24.3809523-6.625258l-27.8260867-15.90062c-6.89026889-3.975157-11.1304347-11.395446-11.1304347-19.345758v-122.1697723c0-7.9503092 4.24016581-15.3706005 11.1304347-19.3457551l105.7391293-61.21739308c6.62526-3.71014336 15.635612-3.71014336 22.260872 0l105.739129 61.21739308c6.890269 3.9751546 11.130435 11.3954459 11.130435 19.3457551v122.1697723c0 7.950312-4.240166 15.370601-11.130435 19.345758l-105.739129 61.21739c-3.445137 1.590063-7.420291 2.385095-11.130437 2.385095zm32.596275-84.008283c-46.376813 0-55.917185-21.200829-55.917185-39.221533 0-1.590062 1.325052-3.180123 3.180123-3.180123h13.78054c1.590061 0 2.915112 1.06004 2.915112 2.650103 2.120083 14.045549 8.215323 20.935818 36.306419 20.935818 22.260871 0 31.801243-5.035197 31.801243-16.960663 0-6.890269-2.650103-11.925466-37.366461-15.370601-28.886127-2.915114-46.90683-9.275363-46.90683-32.331263 0-21.4658385 18.020703-34.1863359 48.231884-34.1863359 33.921324 0 50.616976 11.6604571 52.737059 37.1014499 0 .795031-.265011 1.590063-.795031 2.385094-.53002.53002-1.325052 1.06004-2.120083 1.06004h-13.780538c-1.325051 0-2.650103-1.06004-2.915114-2.385092-3.180123-14.575569-11.395446-19.345757-33.126293-19.345757-24.380954 0-27.296066 8.480332-27.296066 14.84058 0 7.685301 3.445134 10.070395 36.306418 14.310561 32.596273 4.240165 47.966873 10.335403 47.966873 33.126292-.265011 23.320912-19.345755 36.57143-53.00207 36.57143z"/></symbol>
</svg>