<?xml version="1.0" encoding="UTF-8"?>
<svg id="Layer_2" data-name="Layer 2" xmlns="http://www.w3.org/2000/svg" viewBox="0 0 900 569.04">
  <defs>
    <style>
      .cls-1 {
        fill: #be1e61;
      }

      .cls-1, .cls-2, .cls-3, .cls-4, .cls-5 {
        opacity: .89;
      }

      .cls-6 {
        fill: #782368;
      }

      .cls-7 {
        fill: #e32228;
      }

      .cls-8 {
        fill: #5e58a6;
      }

      .cls-2 {
        fill: #00619c;
      }

      .cls-3 {
        fill: #2aace3;
      }

      .cls-4 {
        fill: #282464;
      }

      .cls-9 {
        fill: #e22826;
      }

      .cls-10 {
        fill: #f47b20;
      }

      .cls-11 {
        fill: #fec712;
      }

      .cls-5 {
        fill: #e92b91;
      }
    </style>
  </defs>
  <g id="Layer_1-2" data-name="Layer 1">
    <g>
      <path class="cls-10" d="m.66,302.1c.64-13.9,2.53-27.83,5.63-41.41,1.8-7.89,6.08-24.02,14.47-43.41,3.32-7.67,9.5-21.96,20.9-38.99,4.93-7.36,15.6-22.06,31.76-37.79,9.06-8.82,19.62-17.57,30.55-25.32,12.27-8.7,25.47-16.48,38.19-22.51,16.08-7.62,28.89-11.55,35.78-13.67,13.32-4.09,26.84-7.2,40.2-9.25,13.55-2.08,29.24-3.22,44.18-3.22h1.25c4.82.02,9.69.16,14.47.41h.22s-67.27,63.25-67.27,63.25c-10.19,2.29-20.33,5.13-30.17,8.46-10.37,3.51-20.78,7.7-30.93,12.45-11.47,5.37-23.55,12.04-34.95,19.28-12.2,7.75-24.15,16.5-34.55,25.31-6.57,5.56-17.58,14.88-30.13,29.32-13.64,15.7-21.95,29.26-26.91,37.36-7.21,11.77-22.35,39.5-22.5,39.78l-.17-.05Z"/>
      <path class="cls-10" d="m.75,302.1c.51-11.09,1.95-25.26,5.63-41.39,1-4.38,5.1-21.75,14.47-43.4,3.57-8.26,9.73-22.29,20.9-38.98,3.14-4.7,13.92-20.42,31.75-37.77,4.11-4,14.88-14.21,30.54-25.32,17.67-12.53,32.65-19.88,38.17-22.5,15.75-7.46,28.39-11.4,35.76-13.66,18.01-5.53,32.66-8.09,40.18-9.24,5.45-.84,22.69-3.31,45.41-3.21,5.92.02,10.88.22,14.47.4-22.37,21.03-44.74,42.06-67.11,63.09-8.78,1.96-18.97,4.66-30.14,8.44-6.33,2.14-17.49,6.16-30.94,12.46-5.13,2.4-18.58,8.88-34.96,19.29-17.45,11.09-29.77,21.26-34.56,25.32-6.95,5.88-17.83,15.17-30.14,29.33-13.38,15.39-21.6,28.69-26.92,37.37-7.3,11.91-22.5,39.78-22.5,39.78Z"/>
      <path class="cls-11" d="m473.62,144.63c-4.41-.16-8.75-.36-12.92-.6-2.73-.16-4.7-.29-5.36-.33,0,0-4.2-.29-8.48-.66-12.17-1.06-24-2.69-24.12-2.71-7.87-1.09-18.69-2.81-23.21-3.84l-.13-.03c-3.47-.79-6.62-1.44-8.66-1.84l-.55-.11c-7.39-1.44-11.09-2.17-24.25-4.93-8.53-1.79-39.37-7.63-78.31-7.63-3.9,0-7.82.06-11.66.17-21.51.65-43.3,3.28-64.79,7.81l-.32.07,67.09-63.06,2.63.07c5.43.2,12.86.48,21.31,1.36,18.16,1.9,32.92,4.82,40.84,6.38,5.85,1.16,9.45,1.96,12.62,2.68,4.12.93,7.68,1.73,14.68,2.94,8.68,1.5,14.96,2.58,23.72,3.32,5.77.49,11.39.72,17.18.72,6.08,0,11.51-.27,15.47-.47,7.09-.35,11.77-.59,18.11-1.79,7.26-1.38,12.53-3.19,18.11-5.1,7.24-2.49,12.47-4.28,19.13-7.91,6.92-3.77,11.48-7.39,16.32-11.22,3.22-2.56,9.22-7.31,15.81-14.54,4.83-5.29,7.95-9.66,10.71-13.52,4.83-6.76,7.84-11.86,9.83-15.24,2.22-3.77,3.24-5.49,4.33-5.49.08,0,.15,0,.23.03,4.78,1.07.51,35.39.33,36.85-1.76,13.97-3.42,27.16-10.21,42.9-2.43,5.63-6.95,16.1-16.09,27.07-10.35,12.43-23.58,22.06-39.34,28.61h-.02s-.02,0-.02,0Z"/>
      <path class="cls-9" d="m96.89,517.16c-29.2-22.41-53.38-51.41-69.94-83.87C1.03,382.5-1.65,333.91.66,302.1c15.66-34.88,36.35-65.19,61.52-90.14,9.51-9.42,21.14-19.39,32.76-28.05,19.46-14.52,41.1-27.13,62.57-36.46,17.2-7.48,35.25-13.42,53.63-17.67l.28-.06-.19.22c-42.45,48.33-74.27,103.56-94.58,164.16-23.83,71.08-30.61,148.19-19.61,223l.03.23-.18-.14Z"/>
      <path class="cls-9" d="m211.17,129.86c-27.38,31.18-68.35,85.88-94.6,164.19-32.26,96.24-26.01,179.53-19.61,223.04-17.86-13.71-47.8-40.49-69.92-83.84C-1.51,377.33-.94,325.36.75,302.1c20.27-45.13,45.24-73.97,61.5-90.08,4.09-4.06,15.8-15.4,32.75-28.04,27.12-20.23,51.2-31.52,62.55-36.45,13.73-5.97,31.77-12.62,53.61-17.67Z"/>
      <path class="cls-7" d="m96.95,517.2q-.09,0-.17-.66h0c-8.14-57.39-10.11-145.95,26.69-241.96,20.3-52.95,49.78-101.66,87.63-144.78,19.65-4.18,39.74-6.74,59.76-7.65.05,0,4.96-.22,12.96-.22,12.48,0,31.75.52,52.7,2.98,15.14,1.78,30.99,4.71,31.15,4.74,2.38.44,4.32.82,5.56,1.07,4.39.89,7.82,1.66,11.14,2.41,2.95.66,5.85,1.31,9.32,2.03,2.69.55,5.24,1.05,8.54,1.66.69.13,17.1,3.12,34.78,5.06l1.54.17s.74.07,1.43.15c.95.11,10.69,1.09,20.78,1.67,2.45.14,4.77.25,5.1.27,1.86.08,3.91.17,3.91.17,1.55.06,2.86.11,3.85.15l.03.18c-2.92,1.32-5.9,2.62-8.85,3.85-9.45,3.95-19.03,7.42-28.46,10.34-3.14.97-6.34,1.9-9.52,2.77-.25.07-25.99,7.35-61.92,15.77-10.95,2.57-16.43,3.83-17.5,4.08l-1.24.29c-1.4.32-1.47.34-2.23.53l-2.55.64c-14.49,3.66-38.73,9.78-61.89,20.19-9.85,4.43-35.83,17.16-64.09,39.59-21.49,17.06-61.52,53.59-88.23,106.57-40.47,80.27-31.4,158.6-30.23,167.27l.08.56-.03.03-.06.09Z"/>
      <path class="cls-6" d="m96.95,517.09c.21,1.48-12.86-82.56,30.16-167.89,28.28-56.09,71.06-92.95,88.26-106.6,30.5-24.21,57.75-36.75,64.11-39.61,24.61-11.07,50.68-17.34,64.45-20.84.94-.24.83-.21,3.47-.82,1.07-.25,6.55-1.52,17.5-4.08,36.34-8.51,61.92-15.77,61.92-15.77,3.71-1.01,6.92-1.97,9.51-2.77,5.45-1.68,15.75-5.03,28.45-10.33,3.54-1.48,6.54-2.81,8.84-3.85-.99-.04-2.3-.09-3.85-.15,0,0-2.05-.08-3.88-.17-.1,0-2.55-.12-5.14-.27-9.93-.58-19.65-1.54-20.79-1.67-.7-.08-1.43-.15-1.43-.15s-.78-.08-1.54-.17c-18.06-1.98-34.79-5.06-34.79-5.06-3.47-.64-6-1.13-8.54-1.66-7.41-1.53-12.19-2.76-20.46-4.44-1.24-.25-3.18-.63-5.56-1.07,0,0-15.83-2.94-31.14-4.74-35.18-4.14-65.64-2.76-65.64-2.76-24.4,1.11-44.79,4.47-59.7,7.62-26.73,30.45-62.2,78.48-87.61,144.75-39.79,103.79-33.26,195.93-26.61,242.47Z"/>
      <path class="cls-2" d="m156.78,302.05c1.54-2.01,2.33-3.02,2.77-3.56,0,0,1.86-2.34,2.33-2.92,0,0,2.07-2.56,4.2-5.1,15.41-18.32,32.6-33.88,32.77-34.03.23-.21,23.12-20.71,48.43-36.3,6.33-3.9,12.72-7.44,13.94-8.1,2.72-1.49,5.48-2.94,7.99-4.22,4-2.02,7.18-3.51,8.37-4.06,2.21-1.02,6.75-3.06,12.25-5.23.63-.25,2.09-.82,4.21-1.6,6.07-2.24,10.83-3.83,10.87-3.85,2.09-.7,3.44-1.15,5.36-1.74.63-.19,1.15-.35,1.77-.54.74-.22,1.62-.49,3.01-.91,1.04-.32,1.5-.46,1.85-.57.34-.11.58-.18,1.15-.35,3.12-.93,5.59-1.61,8.74-2.47l3.8-1.02c.47-.12,1.82-.48,3.62-.95,1.38-.36,5.6-1.43,5.6-1.43l4.54-1.15c2.22-.56,5.03-1.21,8.37-1.95l.13-.03c12.09-2.67,38.94-9.31,41.96-10.06l.23-.06c2.84-.71,4.32-1.07,6.26-1.56,8.58-2.18,17.3-4.54,25.91-7.02,3.8-1.09,6.79-1.95,10.15-3,11.91-3.7,24.1-8.35,36.21-13.83,3.51,3.72,7.41,6.86,11.7,9.36,9.06,5.28,17.5,6.25,22.04,6.77,2.48.28,5.01.43,7.53.43,9.2,0,16.3-1.87,19.71-2.98,13.27-4.33,21.13-12.24,32.02-23.18,9.77-9.81,18.45-20.91,25.82-32.98l.17.08c-8.25,25.37-20.76,48.76-37.16,69.54-12.46,15.77-27.04,29.82-43.33,41.76-12.04-1.11-24.08-1.88-35.85-2.28-7.4-.25-14.97-.38-23.14-.38-7.64,0-14.29.11-19.63.2h-.78c-2.2.05-3.45.07-5,.11-10.59.3-22.8,1.24-37.32,2.88-28.97,3.26-45.04,5.38-67.18,10.66-6.22,1.48-22.94,5.72-43.78,12.96-11.27,3.92-30.12,10.47-53.04,22.03-19.39,9.78-33.78,19.09-47.69,28.09-7.33,4.74-14.66,9.68-21.78,14.68l-.13-.13Z"/>
      <path class="cls-2" d="m473.63,144.54c2.44,2.65,6.24,6.23,11.61,9.36,8.89,5.19,17.03,6.2,22.07,6.78,13.96,1.6,24.74-1.73,27.28-2.56,13.02-4.25,20.67-11.76,32.06-23.2,7.21-7.25,16.73-18.08,25.83-33-5.74,17.63-16.49,43.35-37.14,69.51-15,19-30.72,32.52-43.31,41.74-14.42-1.35-26.58-1.98-35.79-2.3-17.37-.6-32.53-.35-42.77-.18-2.71.04-4.06.06-5.78.11-7.32.21-19.02.82-37.33,2.88-29.88,3.36-45.4,5.46-67.19,10.66-3.68.88-21.18,5.11-43.79,12.96-12.35,4.29-30.59,10.7-53.05,22.03-19.35,9.76-33.93,19.18-47.7,28.09-9.03,5.84-16.47,10.95-21.78,14.68,1.54-2.01,2.33-3.02,2.77-3.56.21-.26.63-.78,1.17-1.47.44-.56.54-.68,1.16-1.45,0,0,2.07-2.56,4.2-5.1,15.58-18.53,32.76-34.02,32.76-34.02s22.82-20.52,48.42-36.29c6.9-4.25,13.96-8.12,13.96-8.12,3.91-2.14,6.87-3.65,7.96-4.2,4.29-2.17,7.57-3.69,8.36-4.05,1.5-.69,6.22-2.85,12.24-5.23,0,0,.04-.02.05-.02.58-.23,2.04-.8,4.16-1.59,6.13-2.26,10.87-3.85,10.87-3.85,2.09-.7,3.43-1.15,5.36-1.74,1.38-.42,2.23-.67,4.78-1.44,2.05-.63,1.84-.58,3-.92,3.16-.94,5.68-1.63,8.74-2.47.48-.13.95-.26,1.77-.48.3-.08,1.04-.28,2.03-.54.34-.09,1.73-.46,3.62-.95,1.39-.36,2.45-.63,3.34-.86.76-.19,1.32-.34,2.26-.57,1.3-.33,3.98-1.01,4.54-1.15,3.48-.88,7.52-1.76,8.5-1.98,12.19-2.69,39.5-9.45,41.96-10.06,2.99-.74,4.49-1.11,6.49-1.62,6.17-1.57,15.18-3.93,25.92-7.02,3.74-1.08,6.78-1.95,10.15-3,8.85-2.74,21.25-7.06,36.22-13.83Z"/>
      <path class="cls-3" d="m137.08,542.8c-7.22-3.8-14.37-7.97-21.25-12.38-6.47-4.15-12.84-8.61-18.94-13.25-3.15-31.28-1.63-62.52,4.5-92.9,6.19-30.71,15.81-54.63,22.79-69.29,8.91-18.72,19.88-36.53,32.61-52.93,11.38-7.85,23.02-15.47,34.61-22.65,14.26-8.84,22.1-13.7,33.93-19.66,13.09-6.59,23.97-10.97,32.7-14.49,8.15-3.28,16.38-6.35,24.47-9.13,6.2-2.16,12.54-4.21,18.85-6.08,13.31-3.94,28.24-7.5,43.18-10.29,19.19-3.59,34-5.03,52.76-6.85l.77-.08c7.6-.74,12.61-1.22,19.76-1.69,9.89-.64,19.56-.95,29.54-.95,7.5,0,14.05.16,21.22.36,14.37.4,28.99,1.24,43.46,2.51l.25.02-.21.15c-17.61,12.44-36.35,23.79-55.69,33.75-17.49,9.01-30.11,14.14-43.46,19.56-10.18,4.14-20.7,8.41-33.73,14.61-.35.17-35.74,17.08-71.49,41.75-21.82,15.07-88.23,60.91-136.8,145.21-13.6,23.61-24.94,48.72-33.69,74.62l-.04.1-.1-.05Z"/>
      <path class="cls-3" d="m512.03,213.16c-11.9,8.4-30.89,20.98-55.68,33.75-31.12,16.02-47.43,20.02-77.19,34.17,0,0-35.34,16.8-71.5,41.76-24.96,17.23-89.22,62.61-136.83,145.24-16.9,29.33-27.31,55.74-33.69,74.64-6.72-3.54-13.85-7.63-21.24-12.38-6.92-4.44-13.23-8.91-18.93-13.25-2.49-24.9-2.71-56.86,4.53-92.8,7.07-35.07,18.52-60.31,22.78-69.27,10.69-22.46,22.65-40.1,32.6-52.92,13.7-9.44,25.54-17.02,34.59-22.63,14.28-8.85,22.1-13.7,33.92-19.65,13.08-6.59,24.1-11.02,32.7-14.48,10.79-4.34,19.53-7.44,24.46-9.13,4.76-1.66,11.18-3.8,18.85-6.07,6.27-1.85,21.82-6.3,43.17-10.29,19.45-3.64,34.61-5.09,53.52-6.92,7.59-.74,12.6-1.22,19.76-1.69,21.17-1.37,37.1-.96,50.75-.59,11.61.32,26.34,1.01,43.45,2.51Z"/>
      <path class="cls-4" d="m249.57,569.04c-6.03,0-12.15-.22-18.17-.65-32.94-2.36-64.67-10.97-94.31-25.58,9.83-29.26,22.89-57.28,38.77-83.4,13.01-21.4,29.12-43.05,46.58-62.6,9.6-10.75,30.06-32.2,59.22-55.13,8.88-6.98,27.52-20.95,52.51-36.01,11.39-6.87,35.11-20.42,65.95-34.04,9.02-3.98,13.7-5.78,17.82-7.37,4.5-1.73,8.75-3.37,17.72-7.48,11.98-5.49,32.02-14.68,55.79-30,14.89-9.6,28.95-18.67,45.03-34.49,10.17-10.01,19.37-20.95,27.36-32.53,9.38-13.61,17.29-28.38,23.5-43.89,1.84-4.6,3.54-9.3,5.07-13.98l.18.03c-.05,12.29-1.87,24.42-5.42,36.04-5.64,18.5-15.81,35.86-29.4,50.23,6.74,1.72,13.69,2.73,20.65,2.99,1.29.05,2.55.07,3.78.07,5.91,0,11.85-.54,17.66-1.59l.13-.02-.02.13c-3.98,28.86-12.67,55.36-25.82,78.75-6.73,11.98-13.64,21.43-20.54,28.09-8.59,8.29-26.78,22.86-52.01,27.23-9.79,1.69-21.78,2.05-30.12,2.05-4.36,0-7.58-.1-8.64-.13-1.07-.03-2.11-.07-3.15-.11-2.39-.09-4.65-.17-6.96-.17-4.67,0-10.38.3-17.4,2.5-8.93,2.81-14.87,7.06-17.1,8.66-16.6,11.88-23.49,29.9-26.14,39.75,11.81-7.76,24.6-13.8,38-17.95,10.03-3.11,22.51-6.98,37.75-6.98,3.74,0,7.52.24,11.21.72,24.83,3.21,43.13,16.36,54.11,26.82l.23.22-.32-.06c-7.56-1.53-15.3-2.3-22.98-2.3-4.47,0-8.98.26-13.42.78-9.32,1.09-27.62,4.54-45.5,15.38-24.03,14.57-35.77,35.67-53.53,67.62-6.53,11.75-9.73,18.91-12.55,25.22-3.25,7.26-5.81,13-12.17,22.7-11.65,17.78-26.17,33.76-43.17,47.51-25.92,8.6-52.88,12.95-80.16,12.95Z"/>
      <path class="cls-4" d="m592.48,101.92c-.04,9.47-1.14,22-5.41,36.02-7.52,24.66-21.03,41.39-29.49,50.31,5.51,1.41,12.57,2.72,20.82,3.04,8.47.32,15.77-.48,21.47-1.52-5.14,37.23-17.19,63.38-25.8,78.71-9.65,17.18-17.4,25.05-20.52,28.07-7.81,7.54-26.1,22.73-51.97,27.2-15.22,2.63-35.67,2.01-38.75,1.92-9.13-.28-17.1-1.06-27.54,2.23-8.77,2.76-14.7,6.94-17.13,8.67-17.96,12.86-24.26,32.6-26.24,40.04,8.42-5.55,21.29-12.84,38.18-18.08,12.14-3.76,28.64-8.88,48.92-6.25,26.91,3.48,45.52,18.66,54.06,26.8-8.53-1.72-21.24-3.3-36.43-1.52-7.62.89-26.56,3.89-45.54,15.4-24.05,14.58-35.48,35.13-53.56,67.66-14.14,25.43-12.91,29.89-24.72,47.92-14.81,22.6-31.43,38.01-43.15,47.49-20.21,6.7-54.91,15.39-98.27,12.28-42.64-3.06-75.29-16.21-94.28-25.57,11.91-35.14,26.51-63.04,38.81-83.27,6.45-10.61,21.93-35,46.57-62.58,5.78-6.47,26.86-29.69,59.21-55.12,5.17-4.07,24.71-19.25,52.5-36,7.69-4.64,32.12-19.1,65.94-34.03,18.83-8.31,18.32-6.95,35.54-14.85,12.98-5.95,32.5-14.99,55.8-30.01,14.91-9.61,28.96-18.67,45.05-34.5,13.37-13.16,22.39-25.32,27.37-32.54,5.87-8.51,15.36-23.55,23.51-43.9,2.24-5.59,3.9-10.41,5.07-13.99Z"/>
      <path class="cls-1" d="m580.89,191.32c-7.85-.07-15.7-1.08-23.33-2.99l-.16-.04.11-.12c11.54-12.04,20.44-26.02,26.44-41.53,5.53-14.3,8.37-29.35,8.44-44.73,3.54-6.46,7.12-12.92,10.67-19.25,21.01-37.52,25.91-44.2,30.54-49.55,6.79-7.86,14.49-16.76,27.5-23.7,11.86-6.33,24.95-9.41,40.01-9.41,7.81,0,14.66.81,21,1.63,4.31.56,8.38,1.09,47.16,13.92,9.15,3.03,16.68,5.57,22.96,7.68,21.55,7.26,28.05,9.45,34.32,9.45,1.42,0,2.87-.11,4.7-.37,11.18-1.55,22.34-7.05,44.58-18.02,8.12-4.01,16.18-8.34,23.95-12.88l.24-.14-.11.26c-7.53,17.73-17.83,33.47-30.61,46.76-7.6,7.9-16.21,16.85-30.41,22.48-11.34,4.5-21.26,4.78-30.86,5.05h-.49c-1.15.05-2.24.06-3.29.06-6.33,0-11.1-.58-19.75-1.62-3.72-.45-8.14-.98-13.68-1.59-1.51-.17-3.16-.36-5.16-.6-2.04-.24-4.45-.52-7.42-.86l-3.08-.35c-1.91-.22-3.03-.35-4.56-.49-2.12-.19-6.38-.52-11.05-.59-.68-.01-1.35-.02-2.01-.02-10.63,0-19.27,1.32-22.49,1.89-4.34.76-8.69,1.78-12.94,3.03-3.97,1.16-9.4,2.75-15.23,5.71-.05.02-4.83,2.47-9.44,5.65-.29.2-.7.49-1.19.84-.75.54-1.82,1.33-3.09,2.31-3.11,2.39-6.1,5.02-8.88,7.81-5.03,5.05-9.49,10.74-13.25,16.93-3.89,6.39-6.99,13.25-9.23,20.41-1.87,5.83-3.18,11.84-3.89,17.85-.58,4.82-.79,9.74-.64,14.63-7.06,8.01-18.87,18.33-35.15,22.37-5.75,1.43-12.13,2.12-19.51,2.12-.64,0-1.21,0-1.71,0Z"/>
      <path class="cls-1" d="m592.48,101.92c2.57-4.67,6.22-11.29,10.66-19.2,21.18-37.81,25.95-44.24,30.53-49.54,6.75-7.81,14.47-16.74,27.47-23.68,23.17-12.37,46.66-9.63,60.96-7.77,4.6.6,9.48,1.46,47.14,13.92,47.8,15.82,51.42,18.23,62.01,16.77,11.19-1.55,22.33-7.04,44.61-18.03,10.13-5,18.32-9.59,23.95-12.88-9.63,22.68-22.03,37.83-30.59,46.74-8.07,8.4-16.48,16.95-30.37,22.46-11.52,4.57-21.73,4.79-31.32,5.06-11.13.32-16.34-.93-36.7-3.16-3.05-.33-6.7-.79-12.59-1.46-4.08-.46-5.45-.65-7.64-.84-1.5-.13-6-.51-11.06-.59-12.52-.2-22.5,1.52-24.51,1.87-3.33.59-7.8,1.52-12.95,3.03-4.25,1.24-9.53,2.81-15.25,5.72,0,0-4.78,2.43-9.45,5.66-.29.2-.7.49-1.19.84-.75.54-1.83,1.33-3.09,2.31-2.43,1.87-5.54,4.46-8.89,7.82-3.07,3.09-8.29,8.77-13.27,16.95-4.62,7.59-7.46,14.73-9.24,20.43-1.57,4.89-3.07,10.91-3.9,17.87-.66,5.49-.77,10.44-.64,14.64-6.34,7.16-18.1,18.06-35.08,22.28-8.77,2.18-17.22,2.15-21.2,2.11-9.66-.09-17.67-1.57-23.31-2.99,7.37-7.69,18.68-21.43,26.46-41.56,7.08-18.29,8.4-34.49,8.44-44.76Z"/>
      <path class="cls-5" d="m651.62,205.59c5.29-13.28,8.53-27.21,9.64-41.42.95-12.11.33-24.32-1.84-36.3-2.36,7.06-5.4,13.91-9.06,20.38-3.75,6.62-8.16,12.9-13.13,18.65l-.16.18v-.24c-.1-3.43-.03-6.87.2-10.23.38-5.33,1.9-19.15,7.87-32.47,1.55-3.47,3.15-6.33,3.6-7.12,1.71-3,3.66-5.92,6.31-9.48,11.58-15.56,25.33-24.01,30.71-26.92.2-.11,20.82-11.08,51.26-11.08,2.77,0,5.57.09,8.33.27,3.58.23,7.64.61,7.68.62,1.04.13,2.6.32,4.51.53,1.77.19,3.05.31,4.04.41l.51.05c7.58.73,8.79.87,8.8,1.17-.12.18-.31.23-1.04.23-.56,0-1.34-.03-2.33-.06-1.64-.06-3.89-.14-6.55-.14-18.42,0-33.62,3.85-45.17,11.44-3.73,2.45-11.5,7.56-18.01,17.37-1.75,2.64-4.37,7.03-6.95,14.69-4.58,13.61-6.5,30.12-5.53,47.74-3.64,7.67-8.12,14.92-13.31,21.58-5.89,7.55-12.7,14.37-20.26,20.26l-.27.21.13-.32Z"/>
      <path class="cls-5" d="m770.82,72.59c.03.95-31.5-4.09-55.05,11.39-3.63,2.39-11.52,7.57-18.03,17.4-2.12,3.2-4.56,7.6-6.96,14.71-5.99,17.78-6.17,36.18-5.54,47.77-2.95,6.19-7.19,13.7-13.29,21.51-7.03,9.02-14.32,15.62-20.25,20.25,3.89-9.77,8.28-23.93,9.65-41.44,1.15-14.74-.19-27.32-1.91-36.69-1.96,5.92-4.84,13.06-9.17,20.71-4.36,7.71-9.02,13.89-13.12,18.64-.12-4.25.04-7.77.21-10.22.26-3.72,1.49-18.23,7.86-32.44,1.63-3.63,3.28-6.55,3.6-7.11,1.79-3.13,3.78-6.09,6.31-9.47,12.43-16.69,27.11-24.96,30.68-26.89,0,0,24.18-13.09,59.54-10.8,3.62.23,7.67.62,7.67.62h0c1.03.13,2.6.32,4.51.53,2.09.23,3.51.36,4.55.46,5.8.56,8.71.84,8.71,1.08Z"/>
      <path class="cls-8" d="m328.83,556.2c9.55-7.46,18.44-15.79,26.4-24.76,9.26-10.43,15.34-19.53,17.52-22.97,4.08-6.41,7.07-12.49,11.59-21.69l1.45-2.96c1.91-3.87,2.79-5.8,3.58-7.49.8-1.74,1.5-3.25,3.07-6.38,5.18-10.34,9.6-17.97,13.6-24.67,8.05-13.46,12.09-20.22,16.26-25.67,5.66-7.39,11.41-13.58,17.08-18.42,3.91-3.33,8.03-6.33,11.91-8.67,2-1.21,6.3-3.63,12.76-6.33,10.96-4.59,20.34-6.68,23.87-7.36,7.34-1.43,14.83-2.15,22.26-2.15,1.4,0,2.67.03,3.81.06,6.3.21,12.61.94,18.79,2.17-12.31-11.35-32.29-25.14-57.97-26.93-1.53-.11-3.21-.16-5-.16-8.83,0-19.19,1.28-28.42,3.5-5.14,1.24-11.28,3.12-17.31,5.31-.07.03-7.54,2.75-13.97,5.81-2.15,1.02-4.27,2.12-4.27,2.12,0,0-1.53.79-3.05,1.62-4.2,2.29-9.35,5.56-10.83,6.51l-.2.13.06-.23c2.07-8.38,5.52-16.19,10.24-23.19,3.2-4.74,10.68-15.84,24.87-22.5,2.53-1.19,10.23-4.81,20.43-5.4,1.14-.07,2.45-.1,4.25-.1,2.06,0,4.68.04,8.28.09,2.68.04,4.54.09,6.19.14,2.08.06,3.88.11,6.51.11h.17c.06,0,6.2,0,12.02-.34l.51-.03c6.92-.39,17.38-.98,29.28-4.98,8.14-2.73,16.81-7.05,24.41-12.16,8.03-5.4,13.78-10.85,17.2-14.48,6.47-6.86,10.29-12.93,13.98-18.8,3.36-5.35,6.97-12,10.16-18.75,6.82-14.41,12.36-30.72,16.02-47.19,1.41-6.36,2.57-12.83,3.43-19.24,7.11-1.79,13.74-4.48,19.77-8.09,12.66-7.57,20.01-17.61,23.95-23.01,1.18-1.61,4.27-5.99,7.57-12.05,3.33-6.1,6.12-12.54,8.3-19.13h.18c2.28,12.43,2.9,25.1,1.83,37.67-1.17,13.79-4.35,27.31-9.45,40.21,7.44-5.84,14.15-12.57,19.96-20.02,5.18-6.65,9.65-13.88,13.28-21.5l.18.05c-.65,8.65-2.28,17.04-4.83,24.94-.14.42-14.11,42.33-62.97,73.79-4.07,2.62-7.98,5.07-8.57,5.44-2.62,1.54-5.23,2.96-7.84,4.28-.61.29-1.22.61-1.79.94-.47.27-.72.44-.99.65-.54.43-1.11.88-1.03,1.24.06.29.54.46,1.1.66.59.21,1.06.26,1.34.29,1.35.15,1.64.2,1.79.22.12.02.15.03.58.05,1.97.12,2.96.19,4.2.19h1.45c1.13.03,2.65.04,4.35.04,5.51,0,9.64-.19,12.27-.56,19.01-2.67,36.87-12.66,38.85-13.79,5.05-2.89,11.75-7.13,27.39-20.89,11.37-10.01,16.84-15.68,22.13-21.17,4.23-4.4,8.23-8.55,14.99-14.68,20.5-18.59,32.87-29.82,52.97-36.09,9.4-2.93,19.24-4.42,29.25-4.42,3.49,0,6.98.19,10.38.56,14.34,1.56,28.47,6.43,40.86,14.07l.28.17h-.33c-20.95.05-41.34,5.24-58.95,15-17.74,9.82-28.41,21.74-34.14,28.14-8.47,9.45-11.76,15.46-21.51,33.27-3.43,6.27-7.7,14.07-13.28,23.97-13.45,23.9-20.2,35.9-28.16,47.46-13.63,19.78-23.47,34.07-41.15,46.85-13.34,9.63-26.81,15.36-38.7,20.41-3.72,1.58-8.19,3.37-14.17,4.59-4.3.88-8.61,1.31-13.16,1.31-3.27,0-6.84-.22-10.92-.68-14.56-1.63-25.46-5.02-30.71-6.65-31.77-9.87-47.69-14.81-51.56-14.81-16.44.02-33.35,10.58-50.29,31.39,10.09-2.09,20.42-3.15,30.68-3.15h.58c13.56.05,36.26.14,59.45,12.81,22.46,12.28,35.46,30.71,42.41,44l.16.3-.29-.18c-10.96-6.76-22.8-11.83-35.17-15.08-6.66-1.75-17.8-4.67-31.51-4.67-6.58,0-13.12.69-19.44,2.05-6.08,1.31-19.15,5.38-38.41,17.89-21.51,13.98-34.84,28.09-42.8,36.52-.89.94-1.7,1.8-2.44,2.57-21.69,22.58-51.55,40.49-88.75,53.24l-.09-.16Z"/>
      <path class="cls-8" d="m599.86,189.76c8.86-2.15,15.46-5.47,19.73-8.02,12.42-7.43,19.57-17,23.98-23.04.71-.97,4.01-5.51,7.57-12.06,4.04-7.41,6.63-14.08,8.3-19.15,1.74,9.49,3.12,22.42,1.83,37.63-1.45,17.1-5.76,30.92-9.57,40.5,5.93-4.63,13.22-11.23,20.25-20.25,6.09-7.82,10.34-15.32,13.29-21.51-.85,11.22-3.16,19.75-4.82,24.91,0,0-13.53,41.93-62.93,73.74-4.41,2.84-8.65,5.48-8.65,5.48-2.94,1.72-5.57,3.12-7.76,4.23-.75.36-1.36.69-1.8.94-.48.28-.74.45-1,.66-.59.47-1.15.92-1.06,1.33.07.35.57.52,1.16.73.6.21,1.09.26,1.37.29,2.43.26,1.39.21,2.36.27,1.98.12,2.97.19,4.2.19,2.53,0,12.62.25,18.08-.51,19.17-2.69,36.94-12.7,38.88-13.81,5.36-3.07,12.12-7.45,27.41-20.9,20.36-17.91,21.8-21.95,37.12-35.86,20.58-18.67,32.85-29.8,52.94-36.07,17.85-5.57,33.13-4.56,39.59-3.86,19.23,2.1,33.36,9.45,40.82,14.05-12.46.03-35.24,1.85-59,15.01-17.39,9.63-28.04,21.32-34.17,28.16-11.49,12.83-13.57,19.53-34.8,57.26-13.46,23.93-20.2,35.9-28.16,47.46-14.34,20.81-23.82,34.32-41.13,46.82-13.33,9.63-26.59,15.27-38.69,20.41-3.92,1.67-8.29,3.39-14.15,4.59-8.03,1.65-15.38,1.6-24.04.63-14.4-1.61-25.21-4.94-30.69-6.64-31.81-9.88-47.72-14.82-51.59-14.82-11.89.02-29.21,5.36-50.52,31.63,7.6-1.59,18.45-3.25,31.5-3.2,13.88.05,36.24.14,59.4,12.8,24.4,13.33,37,33.68,42.37,43.97-7.61-4.69-19.53-10.98-35.2-15.09-10.51-2.76-28.93-7.38-50.99-2.62-3.3.71-16.74,3.8-38.44,17.9-24,15.6-38.11,31.67-45.25,39.1-15.86,16.51-42.45,37.36-88.72,53.21,11.47-8.95,20.17-17.73,26.41-24.77,10.01-11.27,16.13-20.78,17.53-22.98,4.51-7.09,7.74-13.88,13.04-24.66,3.84-7.79,3.53-7.65,6.64-13.87,5.15-10.29,9.49-17.78,13.6-24.67,8.06-13.48,12.09-20.22,16.25-25.66,7.93-10.35,14.22-15.97,17.07-18.4,5.65-4.81,10.23-7.66,11.9-8.66,1.01-.61,5.49-3.29,12.74-6.33,11.79-4.94,21.55-6.91,23.85-7.36,11.07-2.15,20.28-2.28,26.05-2.09,7.63.25,14.12,1.23,19.09,2.24-9.73-9.02-30.33-25.23-58.27-27.18-8.27-.58-21.08.36-33.45,3.34-7.83,1.89-15.39,4.61-17.32,5.31,0,0-7.47,2.71-13.97,5.81-2.15,1.02-4.27,2.12-4.27,2.12s-1.53.79-3.05,1.62c-4.49,2.45-10.03,5.99-10.84,6.51,2.64-10.69,7.06-18.46,10.23-23.17,3.55-5.26,10.95-15.95,24.84-22.47,2.8-1.32,10.42-4.82,20.39-5.39,2.58-.15,5.91-.1,12.55,0,6.1.09,8.01.25,12.83.24,0,0,6.14,0,12.03-.34,7.14-.41,17.61-.92,29.82-5.02,3.54-1.19,13.35-4.72,24.43-12.17,9.2-6.19,15.18-12.33,17.21-14.49,6.47-6.87,10.26-12.89,14-18.83,1.23-1.96,5.38-8.64,10.16-18.75,3.47-7.32,10.89-24.09,16.02-47.21,1.75-7.86,2.8-14.51,3.44-19.25Z"/>
      <polygon class="cls-11" points="529.97 21.98 541.24 2.71 541.24 21.98 529.97 21.98"/>
      <path class="cls-11" d="m541.15,3.05l-10.97,18.75c-1.52,2.38-3.31,5.08-5.51,8.15-2.86,4-5.98,8.34-10.72,13.53-6.47,7.09-12.24,11.71-15.82,14.55-4.76,3.78-9.41,7.46-16.33,11.23-6.66,3.63-11.98,5.45-19.14,7.91-5.5,1.89-10.86,3.73-18.12,5.1-6.21,1.18-10.65,1.42-18.12,1.79-8.44.42-18.92.9-32.67-.26-8.77-.74-15.07-1.82-23.73-3.32-12.32-2.12-13.74-2.93-27.31-5.61-8.78-1.73-23.04-4.52-40.83-6.38-9.84-1.03-18.27-1.23-23.86-1.46-22.37,21.03-44.48,41.8-66.85,62.83,26.38-5.57,48.64-7.33,64.81-7.81,40.37-1.22,74.58,4.22,89.99,7.45,13.26,2.78,16.98,3.51,24.43,4.96.05,0,.18.04.37.07,4.75.93,8.23,1.74,8.79,1.87,4.24.97,14.68,2.65,23.2,3.84,0,0,11.81,1.64,24.12,2.71,4.28.37,8.48.66,8.48.66.66.05,2.63.18,5.36.33,3.23.18,7.6.41,12.92.6,10.95-4.56,26.34-13.01,39.3-28.58,8.95-10.75,13.42-20.91,16.08-27.05,6.66-15.41,8.32-27.9,10.21-42.87.13-1.05,1.71-13.93,1.91-24.15h.02V3.05Z"/>
    </g>
  </g>
</svg>